0
SECTION
2
HEADER
9
$INSUNITS
70
4
9
$ACADVER
1
AC1014
9
$HANDSEED
5
FFFF
0
ENDSEC
0
SECTION
2
TABLES
0
TABLE
2
VPORT
5
8
100
AcDbSymbolTable
0
ENDTAB
0
TABLE
2
LTYPE
5
5
100
AcDbSymbolTable
0
LTYPE
5
14
100
AcDbSymbolTableRecord
100
AcDbLinetypeTableRecord
2
BYBLOCK
70
0
0
LTYPE
5
15
100
AcDbSymbolTableRecord
100
AcDbLinetypeTableRecord
2
BYLAYER
70
0
0
ENDTAB
0
TABLE
2
LAYER
5
2
100
AcDbSymbolTable
70
2
0
LAYER
5
50
100
AcDbSymbolTableRecord
100
AcDbLayerTableRecord
2
0
70
0
6
CONTINUOUS
0
ENDTAB
0
TABLE
2
STYLE
5
3
100
AcDbSymbolTable
70
1
0
STYLE
5
11
100
AcDbSymbolTableRecord
100
AcDbTextStyleTableRecord
2
STANDARD
70
0
0
ENDTAB
0
TABLE
2
VIEW
5
6
100
AcDbSymbolTable
70
0
0
ENDTAB
0
TABLE
2
UCS
5
7
100
AcDbSymbolTable
70
0
0
ENDTAB
0
TABLE
2
APPID
5
9
100
AcDbSymbolTable
70
2
0
APPID
5
12
100
AcDbSymbolTableRecord
100
AcDbRegAppTableRecord
2
ACAD
70
0
0
ENDTAB
0
TABLE
2
DIMSTYLE
5
A
100
AcDbSymbolTable
70
1
0
ENDTAB
0
TABLE
2
BLOCK_RECORD
5
1
100
AcDbSymbolTable
70
1
0
BLOCK_RECORD
5
1F
100
AcDbSymbolTableRecord
100
AcDbBlockTableRecord
2
*MODEL_SPACE
0
BLOCK_RECORD
5
1B
100
AcDbSymbolTableRecord
100
AcDbBlockTableRecord
2
*PAPER_SPACE
0
ENDTAB
0
ENDSEC
0
SECTION
2
BLOCKS
0
BLOCK
5
20
100
AcDbEntity
100
AcDbBlockBegin
2
*MODEL_SPACE
0
ENDBLK
5
21
100
AcDbEntity
100
AcDbBlockEnd
0
BLOCK
5
1C
100
AcDbEntity
100
AcDbBlockBegin
2
*PAPER_SPACE
0
ENDBLK
5
1D
100
AcDbEntity
100
AcDbBlockEnd
0
ENDSEC
0
SECTION
2
ENTITIES
0
LINE
5
100
100
AcDbEntity
8
0
100
AcDbLine
10
-29.962476533157272
20
55
30
0
11
-29.962476533157272
21
65.000000000000014
31
0
0
LINE
5
101
100
AcDbEntity
8
0
100
AcDbLine
10
-29.962476533157272
20
65.000000000000014
30
0
11
-60
21
64.999999999999972
31
0
0
LINE
5
102
100
AcDbEntity
8
0
100
AcDbLine
10
-60
20
64.999999999999972
30
0
11
-60
21
67.999999999999972
31
0
0
LINE
5
103
100
AcDbEntity
8
0
100
AcDbLine
10
-60
20
67.999999999999972
30
0
11
-70
21
67.999999999999972
31
0
0
LINE
5
104
100
AcDbEntity
8
0
100
AcDbLine
10
-70
20
67.999999999999972
30
0
11
-70
21
64.999999999999972
31
0
0
LINE
5
105
100
AcDbEntity
8
0
100
AcDbLine
10
-70
20
64.999999999999972
30
0
11
-85
21
64.999999999999972
31
0
0
LINE
5
106
100
AcDbEntity
8
0
100
AcDbLine
10
-85
20
64.999999999999972
30
0
11
-85
21
67.999999999999972
31
0
0
LINE
5
107
100
AcDbEntity
8
0
100
AcDbLine
10
-85
20
67.999999999999972
30
0
11
-95
21
67.999999999999972
31
0
0
LINE
5
108
100
AcDbEntity
8
0
100
AcDbLine
10
-95
20
67.999999999999972
30
0
11
-95
21
64.999999999999972
31
0
0
LINE
5
109
100
AcDbEntity
8
0
100
AcDbLine
10
-95
20
64.999999999999972
30
0
11
-113.9802614490772
21
65.000000000000014
31
0
0
SPLINE
5
110
100
AcDbEntity
8
0
100
AcDbSpline
70
0
71
3
72
8
73
4
74
0
42
0.000000001
43
0.0000000001
44
0.0000000001
40
21.071673386248698
40
21.071673386248698
40
21.071673386248698
40
21.071673386248698
40
22.332407565871055
40
22.332407565871055
40
22.332407565871055
40
22.332407565871055
10
-122.18326399307712
20
57.999999999992447
30
0
10
-119.55822027007684
20
60.457750269730028
30
0
10
-116.81454377266985
20
62.791095793069509
30
0
10
-113.98026144907719
20
65.000000000000028
30
0
0
LINE
5
111
100
AcDbEntity
8
0
100
AcDbLine
10
-122.18326399307712
20
57.999999999992447
30
0
11
-114.82961905645828
21
57.999999999999986
31
0
0
SPLINE
5
112
100
AcDbEntity
8
0
100
AcDbSpline
70
0
71
3
72
10
73
6
74
0
42
0.000000001
43
0.0000000001
44
0.0000000001
40
0
40
0
40
0
40
0
40
0.22726948378341943
40
0.22726948378341943
40
0.45261686912167215
40
0.45261686912167215
40
0.45261686912167215
40
0.45261686912167215
10
-114.82961905685474
20
58
30
0
10
-115.4068831680822
20
57.50941790369702
30
0
10
-115.97927230390511
20
57.013055177163835
30
0
10
-117.10892974009901
20
56.012997705280661
30
0
10
-117.66632482714269
20
55.509365186713481
30
0
10
-118.21839677131501
20
54.999999999999957
30
0
0
LINE
5
113
100
AcDbEntity
8
0
100
AcDbLine
10
-118.21839677131501
20
54.999999999999957
30
0
11
-125.26571757621454
21
54.999999999999986
31
0
0
SPLINE
5
114
100
AcDbEntity
8
0
100
AcDbSpline
70
0
71
3
72
8
73
4
74
0
42
0.000000001
43
0.0000000001
44
0.0000000001
40
19.465334709098876
40
19.465334709098876
40
19.465334709098876
40
19.465334709098876
40
20.568857261334177
40
20.568857261334177
40
20.568857261334177
40
20.568857261334177
10
-131.58172365492101
20
48.000000000000028
30
0
10
-129.58836392692629
20
50.428608415498616
30
0
10
-127.47672543443754
20
52.761911225306839
30
0
10
-125.26571757644899
20
55.000000000231594
30
0
0
LINE
5
115
100
AcDbEntity
8
0
100
AcDbLine
10
-131.58172365492101
20
48.000000000000028
30
0
11
-125.12098023628067
21
47.999999999999986
31
0
0
SPLINE
5
116
100
AcDbEntity
8
0
100
AcDbSpline
70
0
71
3
72
10
73
6
74
0
42
0.000000001
43
0.0000000001
44
0.0000000001
40
0
40
0
40
0
40
0
40
0.19833000094558356
40
0.19833000094558356
40
0.39512034995052658
40
0.39512034995052658
40
0.39512034995052658
40
0.39512034995052658
10
-125.12098023629305
20
48.000000000000107
30
0
10
-125.5615189810911
20
47.50707117298829
30
0
10
-125.99699648308865
20
47.009609065987831
30
0
10
-126.85404043706738
20
46.009538568123183
30
0
10
-127.27569563634147
20
45.506991931690131
30
0
10
-127.69193092900093
20
44.999999999999957
30
0
0
LINE
5
117
100
AcDbEntity
8
0
100
AcDbLine
10
-127.69193092900093
20
44.999999999999957
30
0
11
-133.94588459523496
21
44.999999999999922
31
0
0
SPLINE
5
118
100
AcDbEntity
8
0
100
AcDbSpline
70
0
71
3
72
8
73
4
74
0
42
0.000000001
43
0.0000000001
44
0.0000000001
40
18.022193317347988
40
18.022193317347988
40
18.022193317347988
40
18.022193317347988
40
19.018024852104663
40
19.018024852104663
40
19.018024852104663
40
19.018024852104663
10
-138.73986449440753
20
38.000000000429438
30
0
10
-137.25748308544919
20
40.405443226225763
30
0
10
-135.65438687390582
20
42.739784206918088
30
0
10
-133.94588459523504
20
44.999999999999893
30
0
0
LINE
5
119
100
AcDbEntity
8
0
100
AcDbLine
10
-138.73986449440753
20
38.000000000429438
30
0
11
-132.88622953486487
21
37.999999999999979
31
0
0
SPLINE
5
120
100
AcDbEntity
8
0
100
AcDbSpline
70
0
71
3
72
10
73
6
74
0
42
0.000000001
43
0.0000000001
44
0.0000000001
40
0
40
0
40
0
40
0
40
0.17832771390147603
40
0.17832771390147603
40
0.35545719771528433
40
0.35545719771528433
40
0.35545719771528433
40
0.35545719771528433
10
-132.88622953489198
20
38.000000000000007
30
0
10
-133.2157913305235
20
37.505297108213902
30
0
10
-133.54004049965945
20
37.007068213590671
30
0
10
-134.17542391665467
20
36.00698156215806
30
0
10
-134.48661785507525
20
35.50519238391778
30
0
10
-134.79221467033651
20
34.999999999999943
30
0
0
LINE
5
121
100
AcDbEntity
8
0
100
AcDbLine
10
-134.79221467033651
20
34.999999999999943
30
0
11
-140.50444832789776
21
34.999999999999972
31
0
0
SPLINE
5
122
100
AcDbEntity
8
0
100
AcDbSpline
70
0
71
3
72
8
73
4
74
0
42
0.000000001
43
0.0000000001
44
0.0000000001
40
16.693613462414888
40
16.693613462414888
40
16.693613462414888
40
16.693613462414888
40
17.613139190081661
40
17.613139190081661
40
17.613139190081661
40
17.613139190081661
10
-143.99218728806099
20
27.99999999999973
30
0
10
-142.94593079977992
20
30.391313654157187
30
0
10
-141.77930535399616
20
32.725421166823089
30
0
10
-140.50444832815796
20
34.999999999999929
30
0
0
LINE
5
123
100
AcDbEntity
8
0
100
AcDbLine
10
-143.99218728806099
20
27.99999999999973
30
0
11
-138.55075722228912
21
27.999999999999979
31
0
0
SPLINE
5
124
100
AcDbEntity
8
0
100
AcDbSpline
70
0
71
3
72
10
73
6
74
0
42
0.000000001
43
0.0000000001
44
0.0000000001
40
0
40
0
40
0
40
0
40
0.1645396218123005
40
0.1645396218123005
40
0.32820849754340992
40
0.32820849754340992
40
0.32820849754340992
40
0.32820849754340992
10
-138.55075722228949
20
28.000000000000014
30
0
10
-138.78437883976775
20
27.503779039670285
30
0
10
-139.01242168144125
20
27.004961354599128
30
0
10
-139.45591874060972
20
26.00485766646166
30
0
10
-139.6714100626713
20
25.503650842299571
30
0
10
-139.88111048047938
20
24.999999999999957
30
0
0
LINE
5
125
100
AcDbEntity
8
0
100
AcDbLine
10
-139.88111048047938
20
24.999999999999957
30
0
11
-145.2291293095156
21
24.999999999999922
31
0
0
SPLINE
5
126
100
AcDbEntity
8
0
100
AcDbSpline
70
0
71
3
72
8
73
4
74
0
42
0.000000001
43
0.0000000001
44
0.0000000001
40
15.443997478398586
40
15.443997478398586
40
15.443997478398586
40
15.443997478398586
40
16.312838889570642
40
16.312838889570642
40
16.312838889570642
40
16.312838889570642
10
-147.54236679672491
20
18.000000000255419
30
0
10
-146.8941858628331
20
20.361337015009752
30
0
10
-146.12146126097863
20
22.696131691273198
30
0
10
-145.22912930950466
20
25.000000000028201
30
0
0
LINE
5
127
100
AcDbEntity
8
0
100
AcDbLine
10
-147.54236679672491
20
18.000000000255419
30
0
11
-142.36553893376055
21
17.999999999999979
31
0
0
SPLINE
5
128
100
AcDbEntity
8
0
100
AcDbSpline
70
0
71
3
72
10
73
6
74
0
42
0.000000001
43
0.0000000001
44
0.0000000001
40
0
40
0
40
0
40
0
40
0.15563230720839963
40
0.15563230720839963
40
0.3107201157167308
40
0.3107201157167308
40
0.3107201157167308
40
0.3107201157167308
10
-142.3655389337612
20
18
30
0
10
-142.51211679091912
20
17.502363822007826
30
0
10
-142.65288189861695
20
17.003056746859968
30
0
10
-142.92215258721285
20
16.00293821489122
30
0
10
-143.05067819148604
20
15.502216661465916
30
0
10
-143.17325527112513
20
14.999999999999947
30
0
0
LINE
5
129
100
AcDbEntity
8
0
100
AcDbLine
10
-143.17325527112513
20
14.999999999999947
30
0
11
-148.29531347955674
21
14.99999999999992
31
0
0
SPLINE
5
130
100
AcDbEntity
8
0
100
AcDbSpline
70
0
71
3
72
8
73
4
74
0
42
0.000000001
43
0.0000000001
44
0.0000000001
40
14.234969233049195
40
14.234969233049195
40
14.234969233049195
40
14.234969233049195
40
15.077747581953206
40
15.077747581953206
40
15.077747581953206
40
15.077747581953206
10
-149.51170522737482
20
8.0000000000715854
30
0
10
-149.22831658291304
20
10.353884415359209
30
0
10
-148.82136770649271
20
12.688551807682384
30
0
10
-148.29531347955677
20
14.999999999999893
30
0
0
LINE
5
131
100
AcDbEntity
8
0
100
AcDbLine
10
-149.51170522737482
20
8.0000000000715854
30
0
11
-144.4771713700398
21
7.9999999999999805
31
0
0
SPLINE
5
132
100
AcDbEntity
8
0
100
AcDbSpline
70
0
71
3
72
10
73
6
74
0
42
0.000000001
43
0.0000000001
44
0.0000000001
40
0
40
0
40
0
40
0
40
0.15094678154873778
40
0.15094678154873778
40
0.30167830067985546
40
0.30167830067985546
40
0.30167830067985546
40
0.30167830067985546
10
-144.47717137005213
20
8.0000000000000213
30
0
10
-144.54154359341567
20
7.500978842830488
30
0
10
-144.59994294545615
20
7.0012349398022486
30
0
10
-144.70465257024526
20
6.0011071295928664
30
0
10
-144.75097000409025
20
5.5008202766176648
30
0
10
-144.79126010491822
20
4.9999999999999556
30
0
0
LINE
5
133
100
AcDbEntity
8
0
100
AcDbLine
10
-144.79126010491822
20
4.9999999999999565
30
0
11
-149.80487308495674
21
4.9999999999999281
31
0
0
SPLINE
5
134
100
AcDbEntity
8
0
100
AcDbSpline
70
0
71
3
72
10
73
6
74
0
42
0.000000001
43
0.0000000001
44
0.0000000001
40
13.053341871976587
40
13.053341871976587
40
13.053341871976587
40
13.053341871976587
40
13.208066978286528
40
13.208066978286528
40
13.878129309383878
40
13.878129309383878
40
13.878129309383878
40
13.878129309383878
10
-149.96249531132776
20
-2.000000000000024
30
0
10
-149.97565255592593
20
-1.5615348374752016
30
0
10
-149.98449961358818
20
-1.122461395521658
30
0
10
-150.00850534835504
20
1.221207400389785
30
0
10
-149.94634640914376
20
3.1161428111339635
30
0
10
-149.80487308495674
20
4.9999999999999112
30
0
0
LINE
5
135
100
AcDbEntity
8
0
100
AcDbLine
10
-149.96249531132776
20
-2.000000000000024
30
0
11
-144.960102926437
21
-2.0000000000000195
31
0
0
SPLINE
5
136
100
AcDbEntity
8
0
100
AcDbSpline
70
0
71
3
72
10
73
6
74
0
42
0.000000001
43
0.0000000001
44
0.0000000001
40
0
40
0
40
0
40
0
40
0.15019878044779034
40
0.15019878044779034
40
0.30051353294379712
40
0.30051353294379712
40
0.30051353294379712
40
0.30051353294379712
10
-144.960102926437
20
-2.0000000000000018
30
0
10
-144.94401903124532
20
-2.5004041854829326
30
0
10
-144.92190393281004
20
-3.0005653969133013
30
0
10
-144.865615727472
20
-4.0006944918804042
30
0
10
-144.83143881762797
20
-4.5005643172909213
30
0
10
-144.79126010491822
20
-5.0000000000000577
30
0
0
LINE
5
137
100
AcDbEntity
8
0
100
AcDbLine
10
-144.79126010491819
20
-5.0000000000000577
30
0
11
-149.80487308495674
21
-4.9999999999999964
31
0
0
SPLINE
5
138
100
AcDbEntity
8
0
100
AcDbSpline
70
0
71
3
72
8
73
4
74
0
42
0.000000001
43
0.0000000001
44
0.0000000001
40
11.863104192565714
40
11.863104192565714
40
11.863104192565714
40
11.863104192565714
40
12.699305698218208
40
12.699305698218208
40
12.699305698218208
40
12.699305698218208
10
-148.90852896996867
20
-11.999999999999979
30
0
10
-149.32764435026064
20
-9.6885238982234192
30
0
10
-149.6280976227894
20
-7.3539400599566607
30
0
10
-149.80487308495674
20
-4.9999999999999645
30
0
0
LINE
5
139
100
AcDbEntity
8
0
100
AcDbLine
10
-148.90852896996867
20
-11.999999999999979
30
0
11
-143.83074030244856
21
-12.00000000000002
31
0
0
SPLINE
5
140
100
AcDbEntity
8
0
100
AcDbSpline
70
0
71
3
72
10
73
6
74
0
42
0.000000001
43
0.0000000001
44
0.0000000001
40
0
40
0
40
0
40
0
40
0.15335581447760144
40
0.15335581447760144
40
0.30715770018151511
40
0.30715770018151511
40
0.30715770018151511
40
0.30715770018151511
10
-143.83074030246692
20
-11.999999999999991
30
0
10
-143.73320875194332
20
-12.501795548592025
30
0
10
-143.62969519075162
20
-13.002383040414662
30
0
10
-143.4105067699152
20
-14.002505081995061
30
0
10
-143.29481610367407
20
-14.501947055130248
30
0
10
-143.17325527112507
20
-15.000000000000044
30
0
0
LINE
5
141
100
AcDbEntity
8
0
100
AcDbLine
10
-143.17325527112507
20
-15.000000000000044
30
0
11
-148.29531347917938
21
-15.000000000000025
31
0
0
SPLINE
5
142
100
AcDbEntity
8
0
100
AcDbSpline
70
0
71
3
72
8
73
4
74
0
42
0.000000001
43
0.0000000001
44
0.0000000001
40
10.637854758170363
40
10.637854758170363
40
10.637854758170363
40
10.637854758170363
40
11.499727320989326
40
11.499727320989326
40
11.499727320989326
40
11.499727320989326
10
-146.31729221113955
20
-22.000000000000007
30
0
10
-147.09684623934942
20
-19.695712433536301
30
0
10
-147.75798142931237
20
-17.361002217291926
30
0
10
-148.29531347955674
20
-15.00000000000006
30
0
0
LINE
5
143
100
AcDbEntity
8
0
100
AcDbLine
10
-146.31729221113955
20
-22.000000000000007
30
0
11
-141.05036084189507
21
-22.000000000000021
31
0
0
SPLINE
5
144
100
AcDbEntity
8
0
100
AcDbSpline
70
0
71
3
72
10
73
6
74
0
42
0.000000001
43
0.0000000001
44
0.0000000001
40
0
40
0
40
0
40
0
40
0.1606211509582065
40
0.1606211509582065
40
0.32201536774126316
40
0.32201536774126316
40
0.32201536774126316
40
0.32201536774126316
10
-141.0503608418951
20
-21.999999999999993
30
0
10
-140.86751307033666
20
-22.50321363316619
30
0
10
-140.67882112884715
20
-23.004267193496425
30
0
10
-140.28902871576386
20
-24.004375721799821
30
0
10
-140.08789680045982
20
-24.5033481319551
30
0
10
-139.88111048047932
20
-25.000000000000064
30
0
0
LINE
5
145
100
AcDbEntity
8
0
100
AcDbLine
10
-139.88111048047932
20
-25.000000000000064
30
0
11
-145.22912930939975
21
-25.000000000000028
31
0
0
SPLINE
5
146
100
AcDbEntity
8
0
100
AcDbSpline
70
0
71
3
72
10
73
6
74
0
42
0.000000001
43
0.0000000001
44
0.0000000001
40
9.3613931447051861
40
9.3613931447051861
40
9.3613931447051861
40
9.3613931447051861
40
9.9409756848547328
40
9.9409756848547328
40
10.261613599585779
40
10.261613599585779
40
10.261613599585779
40
10.261613599585779
10
-142.10471491122314
20
-31.99999999999995
30
0
10
-142.84790162540887
20
-30.533189775761468
30
0
10
-143.54636457504213
20
-29.042317850770498
30
0
10
-144.55689016153747
20
-26.689697654364323
30
0
10
-144.90103973668866
20
-25.847078453283313
30
0
10
-145.22912930951557
20
-25.000000000000028
30
0
0
LINE
5
147
100
AcDbEntity
8
0
100
AcDbLine
10
-142.10471491122314
20
-31.99999999999995
30
0
11
-136.51812609854977
21
-32.000000000000021
31
0
0
SPLINE
5
148
100
AcDbEntity
8
0
100
AcDbSpline
70
0
71
3
72
10
73
6
74
0
42
0.000000001
43
0.0000000001
44
0.0000000001
40
0
40
0
40
0
40
0
40
0.1725179494395952
40
0.1725179494395952
40
0.34613520441853918
40
0.34613520441853918
40
0.34613520441853918
40
0.34613520441853918
10
-136.51812609856103
20
-31.999999999999993
30
0
10
-136.24251803692218
20
-32.504711805018054
30
0
10
-135.96125390433011
20
-33.006312337704109
30
0
10
-135.38589729650627
20
-34.006404132530172
30
0
10
-135.09175253357813
20
-34.504823873654125
30
0
10
-134.79221467033645
20
-35.000000000000057
30
0
0
LINE
5
149
100
AcDbEntity
8
0
100
AcDbLine
10
-134.79221467033645
20
-35.000000000000057
30
0
11
-140.50444832784993
21
-35.000000000000021
31
0
0
SPLINE
5
150
100
AcDbEntity
8
0
100
AcDbSpline
70
0
71
3
72
8
73
4
74
0
42
0.000000001
43
0.0000000001
44
0.0000000001
40
7.9905185556946785
40
7.9905185556946785
40
7.9905185556946785
40
7.9905185556946785
40
8.9617266782052472
40
8.9617266782052472
40
8.9617266782052472
40
8.9617266782052472
10
-136.12035116028756
20
-41.999999999999986
30
0
10
-137.69212866578636
20
-39.73596924873717
30
0
10
-139.15813406662517
20
-37.402071651974524
30
0
10
-140.50444832815788
20
-35.000000000000092
30
0
0
LINE
5
151
100
AcDbEntity
8
0
100
AcDbLine
10
-136.12035116028756
20
-41.999999999999986
30
0
11
-130.05101012855275
21
-42.000000000000021
31
0
0
SPLINE
5
152
100
AcDbEntity
8
0
100
AcDbSpline
70
0
71
3
72
10
73
6
74
0
42
0.000000001
43
0.0000000001
44
0.0000000001
40
0
40
0
40
0
40
0
40
0.19011920937474908
40
0.19011920937474908
40
0.38167295006295149
40
0.38167295006295149
40
0.38167295006295149
40
0.38167295006295149
10
-130.05101012855329
20
-41.999999999999972
30
0
10
-129.6700080128895
20
-42.506410885882772
30
0
10
-129.28353804376974
20
-43.008705007433299
30
0
10
-128.49711927486612
20
-44.008780109382514
30
0
10
-128.09709121509439
20
-44.506497887821467
30
0
10
-127.69193092900083
20
-45.000000000000064
30
0
0
LINE
5
153
100
AcDbEntity
8
0
100
AcDbLine
10
-127.69193092900083
20
-45.000000000000064
30
0
11
-133.9458845951512
21
-45.000000000000028
31
0
0
SPLINE
5
154
100
AcDbEntity
8
0
100
AcDbSpline
70
0
71
3
72
8
73
4
74
0
42
0.000000001
43
0.0000000001
44
0.0000000001
40
6.4878939913942384
40
6.4878939913942384
40
6.4878939913942384
40
6.4878939913942384
40
7.5555081058246767
40
7.5555081058246767
40
7.5555081058246767
40
7.5555081058246767
10
-128.11615823150493
20
-51.999999999999964
30
0
10
-130.16757887983655
20
-49.753674082213379
30
0
10
-132.11693914914306
20
-47.419552747192675
30
0
10
-133.94588459524084
20
-44.999999999992184
30
0
0
LINE
5
155
100
AcDbEntity
8
0
100
AcDbLine
10
-128.11615823150493
20
-51.999999999999964
30
0
11
-121.34003354050949
21
-52.000000000000028
31
0
0
SPLINE
5
156
100
AcDbEntity
8
0
100
AcDbSpline
70
0
71
3
72
10
73
6
74
0
42
0.000000001
43
0.0000000001
44
0.0000000001
40
0
40
0
40
0
40
0
40
0.21558801988656948
40
0.21558801988656948
40
0.43297656169527921
40
0.43297656169527921
40
0.43297656169527921
40
0.43297656169527921
10
-121.3400335405104
20
-51.999999999999986
30
0
10
-120.83230439670429
20
-52.508562186804923
30
0
10
-120.31923620999098
20
-53.01181954523279
30
0
10
-119.27862724666988
20
-54.011880491831363
30
0
10
-118.75097234411781
20
-54.508622999333042
30
0
10
-118.2183967713149
20
-55.000000000000064
30
0
0
LINE
5
157
100
AcDbEntity
8
0
100
AcDbLine
10
-118.2183967713149
20
-55.000000000000064
30
0
11
-125.26571757641804
21
-55.000000000000028
31
0
0
SPLINE
5
158
100
AcDbEntity
8
0
100
AcDbSpline
70
0
71
3
72
10
73
6
74
0
42
0.000000001
43
0.0000000001
44
0.0000000001
40
4.8109097848205167
40
4.8109097848205167
40
4.8109097848205167
40
4.8109097848205167
40
5.7995323019188199
40
5.7995323019188199
40
6.0040210308417201
40
6.0040210308417201
40
6.0040210308417201
40
6.0040210308417201
10
-117.68071209845731
20
-62.000000000000021
30
0
10
-119.89480873226333
20
-60.132211695189341
30
0
10
-122.0114840100394
20
-58.209495587616416
30
0
10
-124.44246133364678
20
-55.826607366325618
30
0
10
-124.85580666194943
20
-55.414931594957253
30
0
10
-125.2657175766777
20
-55.000000000000071
30
0
0
LINE
5
159
100
AcDbEntity
8
0
100
AcDbLine
10
-117.68071209845731
20
-62.000000000000021
30
0
11
-109.85269348504906
21
-62.000000000000014
31
0
0
SPLINE
5
160
100
AcDbEntity
8
0
100
AcDbSpline
70
0
71
3
72
10
73
6
74
0
42
0.000000001
43
0.0000000001
44
0.0000000001
40
0
40
0
40
0
40
0
40
0.25359834835368422
40
0.25359834835368422
40
0.50943976063634067
40
0.50943976063634067
40
0.50943976063634067
40
0.50943976063634067
10
-109.85269348508474
20
-61.999999999999993
30
0
10
-109.17985513731932
20
-62.511730099081987
30
0
10
-108.50166406231658
20
-63.016494290021122
30
0
10
-107.12923633786332
20
-64.016545452518301
30
0
10
-106.43483696422727
20
-64.511762943247831
30
0
10
-105.73562062117018
20
-65.000000000000057
30
0
0
LINE
5
161
100
AcDbEntity
8
0
100
AcDbLine
10
-105.7356206211702
20
-65.000000000000043
30
0
11
-113.98026144902637
21
-65.000000000000014
31
0
0
SPLINE
5
162
100
AcDbEntity
8
0
100
AcDbSpline
70
0
71
3
72
8
73
4
74
0
42
0.000000001
43
0.0000000001
44
0.0000000001
40
2.9384750719116397
40
2.9384750719116397
40
2.9384750719116397
40
2.9384750719116397
40
4.2729081846419446
40
4.2729081846419446
40
4.2729081846419446
40
4.2729081846419446
10
-104.08530155598341
20
-72
30
0
10
-107.54818521962196
20
-69.775090800104266
30
0
10
-110.85053688255584
20
-67.439157773372514
30
0
10
-113.98026144908057
20
-64.999999999997414
30
0
0
LINE
5
163
100
AcDbEntity
8
0
100
AcDbLine
10
-104.08530155598341
20
-72
30
0
11
-94.582751146238039
21
-72.000000000000014
31
0
0
SPLINE
5
164
100
AcDbEntity
8
0
100
AcDbSpline
70
0
71
3
72
10
73
6
74
0
42
0.000000001
43
0.0000000001
44
0.0000000001
40
0
40
0
40
0
40
0
40
0.31607782670720858
40
0.31607782670720858
40
0.63502977938859906
40
0.63502977938859906
40
0.63502977938859906
40
0.63502977938859906
10
-94.582751146308027
20
-72
30
0
10
-93.66500916704004
20
-72.517501066987478
30
0
10
-92.741584557285094
20
-73.025095176802907
30
0
10
-90.875943869585313
20
-74.025143424775095
30
0
10
-89.933482098231039
20
-74.517498983290821
30
0
10
-88.986097921353164
20
-75.000000000000128
30
0
0
LINE
5
165
100
AcDbEntity
8
0
100
AcDbLine
10
-88.986097921353164
20
-75.000000000000128
30
0
11
-99.204334582561387
21
-75.000000000000014
31
0
0
SPLINE
5
166
100
AcDbEntity
8
0
100
AcDbSpline
70
0
71
3
72
8
73
4
74
0
42
0.000000001
43
0.0000000001
44
0.0000000001
40
0.75398222897212308
40
0.75398222897212308
40
0.75398222897212308
40
0.75398222897212308
40
2.3244556945207928
40
2.3244556945207928
40
2.3244556945207928
40
2.3244556945207928
10
-85.841423566947199
20
-81.999999999999886
30
0
10
-90.497189338135726
20
-79.83383435450888
30
0
10
-94.95807516941494
20
-77.496280530740194
30
0
10
-99.204334582718602
20
-75.000000000000071
30
0
0
LINE
5
167
100
AcDbEntity
8
0
100
AcDbLine
10
-85.841423566947199
20
-81.999999999999886
30
0
11
-73.2000777666359
21
-82.000000000000014
31
0
0
SPLINE
5
168
100
AcDbEntity
8
0
100
AcDbSpline
70
0
71
3
72
10
73
6
74
0
42
0.000000001
43
0.0000000001
44
0.0000000001
40
0
40
0
40
0
40
0
40
0.44684913827831496
40
0.44684913827831496
40
0.89779770449743534
40
0.89779770449743534
40
0.89779770449743534
40
0.89779770449743534
10
-73.200077766635985
20
-82
30
0
10
-71.809196826521671
20
-82.532965199181575
30
0
10
-70.411326349198504
20
-83.048222315507729
30
0
10
-67.590700018427128
20
-84.048285064393596
30
0
10
-66.167472215262023
20
-84.53289613735376
30
0
10
-64.738719484973132
20
-84.999999999999929
30
0
0
LINE
5
169
100
AcDbEntity
8
0
100
AcDbLine
10
-64.738719484973132
20
-84.999999999999915
30
0
11
-45.796288084206907
21
-85.000000000000014
31
0
0
LINE
5
170
100
AcDbEntity
8
0
100
AcDbLine
10
-45.796288084206907
20
-85.000000000000014
30
0
11
-45.796288084206907
21
-75.000000000000014
31
0
0
LINE
5
171
100
AcDbEntity
8
0
100
AcDbLine
10
-45.796288084206907
20
-75.000000000000014
30
0
11
-45.213210182423595
21
-75.000000000000014
31
0
0
SPLINE
5
172
100
AcDbEntity
8
0
100
AcDbSpline
70
0
71
3
72
20
73
16
74
0
42
0.000000001
43
0.0000000001
44
0.0000000001
40
-22.250285350978654
40
-22.250285350978654
40
-22.250285350978654
40
-22.250285350978654
40
-18.177504027601827
40
-18.177504027601827
40
-14.519112723640987
40
-14.519112723640987
40
-11.324503300988511
40
-11.324503300988511
40
-8.8783261054209461
40
-8.8783261054209461
40
-6.4912435248697804
40
-6.4912435248697804
40
-3.7334176156122694
40
-3.7334176156122694
40
0
40
0
40
0
40
0
10
-45.213210182423595
20
-74.999999999999972
30
0
10
-56.418544351628995
20
-72.441872642743888
30
0
10
-67.514328232639258
20
-68.826891511577131
30
0
10
-87.291127990819732
20
-59.710478854394388
30
0
10
-96.321697065855062
20
-54.334670039982385
30
0
10
-111.16455425798456
20
-42.073304824310995
30
0
10
-117.35141407699655
20
-35.367954952223606
30
0
10
-125.47774638915655
20
-21.815481710972733
30
0
10
-128.01696333308169
20
-15.455082159210765
30
0
10
-130.3885689289763
20
-2.1416007574376703
30
0
10
-130.22689414377243
20
4.4791222464992444
30
0
10
-127.06014034566647
20
18.522916939896504
30
0
10
-123.7120907009853
20
25.509665558593223
30
0
10
-113.22867520654734
20
40.384648065052104
30
0
10
-104.82658987465413
20
48.218289480713629
30
0
10
-94.392051439726657
20
54.999999999999986
30
0
0
LINE
5
173
100
AcDbEntity
8
0
100
AcDbLine
10
-94.392051439726643
20
54.999999999999993
30
0
11
-29.962476533157272
21
55
31
0
0
ENDSEC
0
SECTION
2
OBJECTS
0
DICTIONARY
5
C
100
AcDbDictionary
3
ACAD_GROUP
350
D
3
ACAD_MLINESTYLE
350
17
0
DICTIONARY
5
D
100
AcDbDictionary
0
DICTIONARY
5
1A
330
C
100
AcDbDictionary
0
DICTIONARY
5
17
100
AcDbDictionary
0
ENDSEC
0
EOF
