0
SECTION
2
HEADER
9
$INSUNITS
70
4
9
$ACADVER
1
AC1014
9
$HANDSEED
5
FFFF
0
ENDSEC
0
SECTION
2
TABLES
0
TABLE
2
VPORT
5
8
100
AcDbSymbolTable
0
ENDTAB
0
TABLE
2
LTYPE
5
5
100
AcDbSymbolTable
0
LTYPE
5
14
100
AcDbSymbolTableRecord
100
AcDbLinetypeTableRecord
2
BYBLOCK
70
0
0
LTYPE
5
15
100
AcDbSymbolTableRecord
100
AcDbLinetypeTableRecord
2
BYLAYER
70
0
0
ENDTAB
0
TABLE
2
LAYER
5
2
100
AcDbSymbolTable
70
2
0
LAYER
5
50
100
AcDbSymbolTableRecord
100
AcDbLayerTableRecord
2
0
70
0
6
CONTINUOUS
0
ENDTAB
0
TABLE
2
STYLE
5
3
100
AcDbSymbolTable
70
1
0
STYLE
5
11
100
AcDbSymbolTableRecord
100
AcDbTextStyleTableRecord
2
STANDARD
70
0
0
ENDTAB
0
TABLE
2
VIEW
5
6
100
AcDbSymbolTable
70
0
0
ENDTAB
0
TABLE
2
UCS
5
7
100
AcDbSymbolTable
70
0
0
ENDTAB
0
TABLE
2
APPID
5
9
100
AcDbSymbolTable
70
2
0
APPID
5
12
100
AcDbSymbolTableRecord
100
AcDbRegAppTableRecord
2
ACAD
70
0
0
ENDTAB
0
TABLE
2
DIMSTYLE
5
A
100
AcDbSymbolTable
70
1
0
ENDTAB
0
TABLE
2
BLOCK_RECORD
5
1
100
AcDbSymbolTable
70
1
0
BLOCK_RECORD
5
1F
100
AcDbSymbolTableRecord
100
AcDbBlockTableRecord
2
*MODEL_SPACE
0
BLOCK_RECORD
5
1B
100
AcDbSymbolTableRecord
100
AcDbBlockTableRecord
2
*PAPER_SPACE
0
ENDTAB
0
ENDSEC
0
SECTION
2
BLOCKS
0
BLOCK
5
20
100
AcDbEntity
100
AcDbBlockBegin
2
*MODEL_SPACE
0
ENDBLK
5
21
100
AcDbEntity
100
AcDbBlockEnd
0
BLOCK
5
1C
100
AcDbEntity
100
AcDbBlockBegin
2
*PAPER_SPACE
0
ENDBLK
5
1D
100
AcDbEntity
100
AcDbBlockEnd
0
ENDSEC
0
SECTION
2
ENTITIES
0
LWPOLYLINE
5
100
100
AcDbEntity
8
0
100
AcDbPolyline
90
44
70
1
43
0.0
10
0
20
0
10
0
20
20.190476190476218
10
-3.0000000000000071
20
20.190476190476218
10
-3.0000000000000071
20
40.380952380952408
10
0
20
40.380952380952408
10
0
20
60.571428571428598
10
-3.0000000000000071
20
60.571428571428598
10
-3.0000000000000071
20
80.761904761904788
10
0
20
80.761904761904788
10
0
20
100.95238095238099
10
-3.0000000000000071
20
100.95238095238099
10
-3.0000000000000071
20
121.14285714285717
10
0
20
121.14285714285717
10
0
20
141.33333333333337
10
-3.0000000000000071
20
141.33333333333337
10
-3.0000000000000071
20
161.52380952380955
10
0
20
161.52380952380955
10
0
20
181.71428571428575
10
-3.0000000000000071
20
181.71428571428575
10
-3.0000000000000071
20
201.90476190476193
10
0
20
201.90476190476193
10
0
20
222.09523809523813
10
-3.0000000000000071
20
222.09523809523813
10
-3.0000000000000071
20
242.28571428571431
10
0
20
242.28571428571431
10
0
20
262.47619047619048
10
-3.0000000000000071
20
262.47619047619048
10
-3.0000000000000071
20
282.66666666666669
10
0
20
282.66666666666669
10
0
20
302.85714285714289
10
-3.0000000000000071
20
302.85714285714289
10
-3.0000000000000071
20
323.04761904761904
10
0
20
323.04761904761904
10
0
20
343.23809523809524
10
-3.0000000000000071
20
343.23809523809524
10
-3.0000000000000071
20
363.42857142857144
10
0
20
363.42857142857144
10
0
20
383.61904761904759
10
-3.0000000000000071
20
383.61904761904759
10
-3.0000000000000071
20
403.8095238095238
10
0
20
403.8095238095238
10
0
20
424
10
16
20
424
10
16
20
0
0
CIRCLE
5
101
100
AcDbEntity
8
0
100
AcDbCircle
10
8
20
4
30
0
40
1.9999999999999996
210
0
220
0
230
1
0
CIRCLE
5
102
100
AcDbEntity
8
0
100
AcDbCircle
10
8
20
212
30
0
40
1.9999999999999962
210
0
220
0
230
1
0
CIRCLE
5
103
100
AcDbEntity
8
0
100
AcDbCircle
10
7.9999999999999991
20
419.99999999999994
30
0
40
2.0000000000000098
210
0
220
0
230
1
0
ENDSEC
0
SECTION
2
OBJECTS
0
DICTIONARY
5
C
100
AcDbDictionary
3
ACAD_GROUP
350
D
3
ACAD_MLINESTYLE
350
17
0
DICTIONARY
5
D
100
AcDbDictionary
0
DICTIONARY
5
1A
330
C
100
AcDbDictionary
0
DICTIONARY
5
17
100
AcDbDictionary
0
ENDSEC
0
EOF
