0
SECTION
2
HEADER
9
$INSUNITS
70
4
9
$ACADVER
1
AC1014
9
$HANDSEED
5
FFFF
0
ENDSEC
0
SECTION
2
TABLES
0
TABLE
2
VPORT
5
8
100
AcDbSymbolTable
0
ENDTAB
0
TABLE
2
LTYPE
5
5
100
AcDbSymbolTable
0
LTYPE
5
14
100
AcDbSymbolTableRecord
100
AcDbLinetypeTableRecord
2
BYBLOCK
70
0
0
LTYPE
5
15
100
AcDbSymbolTableRecord
100
AcDbLinetypeTableRecord
2
BYLAYER
70
0
0
ENDTAB
0
TABLE
2
LAYER
5
2
100
AcDbSymbolTable
70
2
0
LAYER
5
50
100
AcDbSymbolTableRecord
100
AcDbLayerTableRecord
2
0
70
0
6
CONTINUOUS
0
ENDTAB
0
TABLE
2
STYLE
5
3
100
AcDbSymbolTable
70
1
0
STYLE
5
11
100
AcDbSymbolTableRecord
100
AcDbTextStyleTableRecord
2
STANDARD
70
0
0
ENDTAB
0
TABLE
2
VIEW
5
6
100
AcDbSymbolTable
70
0
0
ENDTAB
0
TABLE
2
UCS
5
7
100
AcDbSymbolTable
70
0
0
ENDTAB
0
TABLE
2
APPID
5
9
100
AcDbSymbolTable
70
2
0
APPID
5
12
100
AcDbSymbolTableRecord
100
AcDbRegAppTableRecord
2
ACAD
70
0
0
ENDTAB
0
TABLE
2
DIMSTYLE
5
A
100
AcDbSymbolTable
70
1
0
ENDTAB
0
TABLE
2
BLOCK_RECORD
5
1
100
AcDbSymbolTable
70
1
0
BLOCK_RECORD
5
1F
100
AcDbSymbolTableRecord
100
AcDbBlockTableRecord
2
*MODEL_SPACE
0
BLOCK_RECORD
5
1B
100
AcDbSymbolTableRecord
100
AcDbBlockTableRecord
2
*PAPER_SPACE
0
ENDTAB
0
ENDSEC
0
SECTION
2
BLOCKS
0
BLOCK
5
20
100
AcDbEntity
100
AcDbBlockBegin
2
*MODEL_SPACE
0
ENDBLK
5
21
100
AcDbEntity
100
AcDbBlockEnd
0
BLOCK
5
1C
100
AcDbEntity
100
AcDbBlockBegin
2
*PAPER_SPACE
0
ENDBLK
5
1D
100
AcDbEntity
100
AcDbBlockEnd
0
ENDSEC
0
SECTION
2
ENTITIES
0
LWPOLYLINE
5
100
100
AcDbEntity
8
0
100
AcDbPolyline
90
44
70
1
43
0.0
10
0
20
0
10
0
20
34.47619047619051
10
-3.0000000000000071
20
34.47619047619051
10
-3.0000000000000071
20
68.952380952380992
10
0
20
68.952380952380992
10
0
20
103.42857142857149
10
-3.0000000000000071
20
103.42857142857149
10
-3.0000000000000071
20
137.90476190476195
10
0
20
137.90476190476195
10
0
20
172.38095238095244
10
-3.0000000000000071
20
172.38095238095244
10
-3.0000000000000071
20
206.85714285714295
10
0
20
206.85714285714295
10
0
20
241.3333333333334
10
-3.0000000000000071
20
241.3333333333334
10
-3.0000000000000071
20
275.80952380952391
10
0
20
275.80952380952391
10
0
20
310.28571428571439
10
-3.0000000000000071
20
310.28571428571439
10
-3.0000000000000071
20
344.76190476190482
10
0
20
344.76190476190482
10
0
20
379.2380952380953
10
-3.0000000000000071
20
379.2380952380953
10
-3.0000000000000071
20
413.71428571428578
10
0
20
413.71428571428578
10
0
20
448.19047619047632
10
-3.0000000000000071
20
448.19047619047632
10
-3.0000000000000071
20
482.66666666666674
10
0
20
482.66666666666674
10
0
20
517.14285714285722
10
-3.0000000000000071
20
517.14285714285722
10
-3.0000000000000071
20
551.61904761904771
10
0
20
551.61904761904771
10
0
20
586.09523809523819
10
-3.0000000000000071
20
586.09523809523819
10
-3.0000000000000071
20
620.57142857142867
10
0
20
620.57142857142867
10
0
20
655.04761904761926
10
-3.0000000000000071
20
655.04761904761926
10
-3.0000000000000071
20
689.52380952380963
10
0
20
689.52380952380963
10
0
20
724
10
16
20
724
10
16
20
0
0
CIRCLE
5
101
100
AcDbEntity
8
0
100
AcDbCircle
10
8
20
4
30
0
40
1.9999999999999996
210
0
220
0
230
1
0
CIRCLE
5
102
100
AcDbEntity
8
0
100
AcDbCircle
10
8
20
362
30
0
40
1.9999999999999962
210
0
220
0
230
1
0
CIRCLE
5
103
100
AcDbEntity
8
0
100
AcDbCircle
10
7.9999999999999991
20
720
30
0
40
2.0000000000000098
210
0
220
0
230
1
0
ENDSEC
0
SECTION
2
OBJECTS
0
DICTIONARY
5
C
100
AcDbDictionary
3
ACAD_GROUP
350
D
3
ACAD_MLINESTYLE
350
17
0
DICTIONARY
5
D
100
AcDbDictionary
0
DICTIONARY
5
1A
330
C
100
AcDbDictionary
0
DICTIONARY
5
17
100
AcDbDictionary
0
ENDSEC
0
EOF
