  0
SECTION
  2
HEADER
  9
$ACADVER
  1
AC1024
  9
$ACADMAINTVER
 70
     6
  9
$DWGCODEPAGE
  3
UNDEFINED
  9
$INSBASE
 10
0.0
 20
0.0
 30
0.0
  9
$EXTMIN
 10
1.000000000000000E+20
 20
1.000000000000000E+20
 30
1.000000000000000E+20
  9
$EXTMAX
 10
-1.000000000000000E+20
 20
-1.000000000000000E+20
 30
-1.000000000000000E+20
  9
$LIMMIN
 10
0.0
 20
0.0
  9
$LIMMAX
 10
12.0
 20
9.0
  9
$ORTHOMODE
 70
     0
  9
$REGENMODE
 70
     1
  9
$FILLMODE
 70
     1
  9
$QTEXTMODE
 70
     0
  9
$MIRRTEXT
 70
     1
  9
$LTSCALE
 40
1.0
  9
$ATTMODE
 70
     1
  9
$TEXTSIZE
 40
0.2
  9
$TRACEWID
 40
0.05
  9
$TEXTSTYLE
  7
Standard
  9
$CLAYER
  8
0
  9
$CELTYPE
  6
ByLayer
  9
$CECOLOR
 62
   256
  9
$CELTSCALE
 40
1.0
  9
$DISPSILH
 70
     0
  9
$DIMSCALE
 40
1.0
  9
$DIMASZ
 40
0.18
  9
$DIMEXO
 40
0.0625
  9
$DIMDLI
 40
0.38
  9
$DIMRND
 40
0.0
  9
$DIMDLE
 40
0.0
  9
$DIMEXE
 40
0.18
  9
$DIMTP
 40
0.0
  9
$DIMTM
 40
0.0
  9
$DIMTXT
 40
0.18
  9
$DIMCEN
 40
0.09
  9
$DIMTSZ
 40
0.0
  9
$DIMTOL
 70
     0
  9
$DIMLIM
 70
     0
  9
$DIMTIH
 70
     1
  9
$DIMTOH
 70
     1
  9
$DIMSE1
 70
     0
  9
$DIMSE2
 70
     0
  9
$DIMTAD
 70
     0
  9
$DIMZIN
 70
     0
  9
$DIMBLK
  1

  9
$DIMASO
 70
     1
  9
$DIMSHO
 70
     1
  9
$DIMPOST
  1

  9
$DIMAPOST
  1

  9
$DIMALT
 70
     0
  9
$DIMALTD
 70
     2
  9
$DIMALTF
 40
25.4
  9
$DIMLFAC
 40
1.0
  9
$DIMTOFL
 70
     0
  9
$DIMTVP
 40
0.0
  9
$DIMTIX
 70
     0
  9
$DIMSOXD
 70
     0
  9
$DIMSAH
 70
     0
  9
$DIMBLK1
  1

  9
$DIMBLK2
  1

  9
$DIMSTYLE
  2
Standard
  9
$DIMCLRD
 70
     0
  9
$DIMCLRE
 70
     0
  9
$DIMCLRT
 70
     0
  9
$DIMTFAC
 40
1.0
  9
$DIMGAP
 40
0.09
  9
$DIMJUST
 70
     0
  9
$DIMSD1
 70
     0
  9
$DIMSD2
 70
     0
  9
$DIMTOLJ
 70
     1
  9
$DIMTZIN
 70
     0
  9
$DIMALTZ
 70
     0
  9
$DIMALTTZ
 70
     0
  9
$DIMUPT
 70
     0
  9
$DIMDEC
 70
     4
  9
$DIMTDEC
 70
     4
  9
$DIMALTU
 70
     2
  9
$DIMALTTD
 70
     2
  9
$DIMTXSTY
  7
Standard
  9
$DIMAUNIT
 70
     0
  9
$DIMADEC
 70
     0
  9
$DIMALTRND
 40
0.0
  9
$DIMAZIN
 70
     0
  9
$DIMDSEP
 70
    46
  9
$DIMATFIT
 70
     3
  9
$DIMFRAC
 70
     0
  9
$DIMLDRBLK
  1

  9
$DIMLUNIT
 70
     2
  9
$DIMLWD
 70
    -2
  9
$DIMLWE
 70
    -2
  9
$DIMTMOVE
 70
     0
  9
$DIMFXL
 40
1.0
  9
$DIMFXLON
 70
     0
  9
$DIMJOGANG
 40
0.7853981633974483
  9
$DIMTFILL
 70
     0
  9
$DIMTFILLCLR
 70
     0
  9
$DIMARCSYM
 70
     0
  9
$DIMLTYPE
  6

  9
$DIMLTEX1
  6

  9
$DIMLTEX2
  6

  9
$DIMTXTDIRECTION
 70
     0
  9
$LUNITS
 70
     2
  9
$LUPREC
 70
     4
  9
$SKETCHINC
 40
0.1
  9
$FILLETRAD
 40
0.5
  9
$AUNITS
 70
     0
  9
$AUPREC
 70
     0
  9
$MENU
  1
.
  9
$ELEVATION
 40
0.0
  9
$PELEVATION
 40
0.0
  9
$THICKNESS
 40
0.0
  9
$LIMCHECK
 70
     0
  9
$CHAMFERA
 40
0.5
  9
$CHAMFERB
 40
0.5
  9
$CHAMFERC
 40
1.0
  9
$CHAMFERD
 40
0.0
  9
$SKPOLY
 70
     0
  9
$TDCREATE
 40
2459045.830324063
  9
$TDUCREATE
 40
2459045.788657407
  9
$TDUPDATE
 40
2459045.830324063
  9
$TDUUPDATE
 40
2459045.788657407
  9
$TDINDWG
 40
0.0000000116
  9
$TDUSRTIMER
 40
0.0000000116
  9
$USRTIMER
 70
     1
  9
$ANGBASE
 50
0.0
  9
$ANGDIR
 70
     0
  9
$PDMODE
 70
     0
  9
$PDSIZE
 40
0.0
  9
$PLINEWID
 40
0.0
  9
$SPLFRAME
 70
     0
  9
$SPLINETYPE
 70
     6
  9
$SPLINESEGS
 70
     8
  9
$HANDSEED
  5
4D
  9
$SURFTAB1
 70
     6
  9
$SURFTAB2
 70
     6
  9
$SURFTYPE
 70
     6
  9
$SURFU
 70
     6
  9
$SURFV
 70
     6
  9
$UCSBASE
  2

  9
$UCSNAME
  2

  9
$UCSORG
 10
0.0
 20
0.0
 30
0.0
  9
$UCSXDIR
 10
1.0
 20
0.0
 30
0.0
  9
$UCSYDIR
 10
0.0
 20
1.0
 30
0.0
  9
$UCSORTHOREF
  2

  9
$UCSORTHOVIEW
 70
     0
  9
$UCSORGTOP
 10
0.0
 20
0.0
 30
0.0
  9
$UCSORGBOTTOM
 10
0.0
 20
0.0
 30
0.0
  9
$UCSORGLEFT
 10
0.0
 20
0.0
 30
0.0
  9
$UCSORGRIGHT
 10
0.0
 20
0.0
 30
0.0
  9
$UCSORGFRONT
 10
0.0
 20
0.0
 30
0.0
  9
$UCSORGBACK
 10
0.0
 20
0.0
 30
0.0
  9
$PUCSBASE
  2

  9
$PUCSNAME
  2

  9
$PUCSORG
 10
0.0
 20
0.0
 30
0.0
  9
$PUCSXDIR
 10
1.0
 20
0.0
 30
0.0
  9
$PUCSYDIR
 10
0.0
 20
1.0
 30
0.0
  9
$PUCSORTHOREF
  2

  9
$PUCSORTHOVIEW
 70
     0
  9
$PUCSORGTOP
 10
0.0
 20
0.0
 30
0.0
  9
$PUCSORGBOTTOM
 10
0.0
 20
0.0
 30
0.0
  9
$PUCSORGLEFT
 10
0.0
 20
0.0
 30
0.0
  9
$PUCSORGRIGHT
 10
0.0
 20
0.0
 30
0.0
  9
$PUCSORGFRONT
 10
0.0
 20
0.0
 30
0.0
  9
$PUCSORGBACK
 10
0.0
 20
0.0
 30
0.0
  9
$USERI1
 70
     0
  9
$USERI2
 70
     0
  9
$USERI3
 70
     0
  9
$USERI4
 70
     0
  9
$USERI5
 70
     0
  9
$USERR1
 40
0.0
  9
$USERR2
 40
0.0
  9
$USERR3
 40
0.0
  9
$USERR4
 40
0.0
  9
$USERR5
 40
0.0
  9
$WORLDVIEW
 70
     1
  9
$SHADEDGE
 70
     3
  9
$SHADEDIF
 70
    70
  9
$TILEMODE
 70
     1
  9
$MAXACTVP
 70
    64
  9
$PINSBASE
 10
0.0
 20
0.0
 30
0.0
  9
$PLIMCHECK
 70
     0
  9
$PEXTMIN
 10
1.000000000000000E+20
 20
1.000000000000000E+20
 30
1.000000000000000E+20
  9
$PEXTMAX
 10
-1.000000000000000E+20
 20
-1.000000000000000E+20
 30
-1.000000000000000E+20
  9
$PLIMMIN
 10
0.0
 20
0.0
  9
$PLIMMAX
 10
12.0
 20
9.0
  9
$UNITMODE
 70
     0
  9
$VISRETAIN
 70
     1
  9
$PLINEGEN
 70
     0
  9
$PSLTSCALE
 70
     1
  9
$TREEDEPTH
 70
  3020
  9
$CMLSTYLE
  2
Standard
  9
$CMLJUST
 70
     0
  9
$CMLSCALE
 40
1.0
  9
$PROXYGRAPHICS
 70
     1
  9
$MEASUREMENT
 70
     0
  9
$CELWEIGHT
370
    -1
  9
$ENDCAPS
280
     0
  9
$JOINSTYLE
280
     0
  9
$LWDISPLAY
290
     1
  9
$INSUNITS
 70
     4
  9
$HYPERLINKBASE
  1

  9
$STYLESHEET
  1

  9
$XEDIT
290
     1
  9
$CEPSNTYPE
380
     0
  9
$PSTYLEMODE
290
     1
  9
$FINGERPRINTGUID
  2
{4A144E43-F70B-0A19-32A1-DA7BD77A31C6}
  9
$VERSIONGUID
  2
{FAEB1C32-E019-11D5-929B-00C0DF256EC4}
  9
$EXTNAMES
290
     1
  9
$PSVPSCALE
 40
0.0
  9
$OLESTARTUP
290
     0
  9
$SORTENTS
280
   127
  9
$INDEXCTL
280
     0
  9
$HIDETEXT
280
     1
  9
$XCLIPFRAME
280
     2
  9
$HALOGAP
280
     0
  9
$OBSCOLOR
 70
   257
  9
$OBSLTYPE
280
     0
  9
$INTERSECTIONDISPLAY
280
     0
  9
$INTERSECTIONCOLOR
 70
   257
  9
$DIMASSOC
280
     2
  9
$PROJECTNAME
  1

  9
$CAMERADISPLAY
290
     0
  9
$LENSLENGTH
 40
50.0
  9
$CAMERAHEIGHT
 40
0.0
  9
$STEPSPERSEC
 40
2.0
  9
$STEPSIZE
 40
6.0
  9
$3DDWFPREC
 40
2.0
  9
$PSOLWIDTH
 40
0.25
  9
$PSOLHEIGHT
 40
4.0
  9
$LOFTANG1
 40
1.570796326794897
  9
$LOFTANG2
 40
1.570796326794897
  9
$LOFTMAG1
 40
0.0
  9
$LOFTMAG2
 40
0.0
  9
$LOFTPARAM
 70
     7
  9
$LOFTNORMALS
280
     1
  9
$LATITUDE
 40
37.795
  9
$LONGITUDE
 40
-122.394
  9
$NORTHDIRECTION
 40
0.0
  9
$TIMEZONE
 70
 -8000
  9
$LIGHTGLYPHDISPLAY
280
     1
  9
$TILEMODELIGHTSYNCH
280
     1
  9
$CMATERIAL
347
3C
  9
$SOLIDHIST
280
     1
  9
$SHOWHIST
280
     1
  9
$DWFFRAME
280
     2
  9
$DGNFRAME
280
     2
  9
$REALWORLDSCALE
290
     1
  9
$INTERFERECOLOR
 62
   256
  9
$CSHADOW
280
     0
  9
$SHADOWPLANELOCATION
 40
0.0
  0
ENDSEC
  0
SECTION
  2
CLASSES
  0
CLASS
  1
ACDBDICTIONARYWDFLT
  2
AcDbDictionaryWithDefault
  3
ObjectDBX Classes
 90
        0
 91
        4
280
     0
281
     0
  0
CLASS
  1
VISUALSTYLE
  2
AcDbVisualStyle
  3
ObjectDBX Classes
 90
     4095
 91
        4
280
     0
281
     0
  0
CLASS
  1
MATERIAL
  2
AcDbMaterial
  3
ObjectDBX Classes
 90
     1153
 91
        4
280
     0
281
     0
  0
CLASS
  1
SUN
  2
AcDbSun
  3
SCENEOE
 90
     1024
 91
        4
280
     0
281
     0
  0
ENDSEC
  0
SECTION
  2
TABLES
  0
TABLE
  2
VPORT
  5
8
330
0
100
AcDbSymbolTable
 70
     1
  0
VPORT
  5
29
330
8
100
AcDbSymbolTableRecord
100
AcDbViewportTableRecord
  2
*Active
 70
     0
 10
0.0
 20
0.0
 11
1.0
 21
1.0
 12
0.0
 22
0.0
 13
0.0
 23
0.0
 14
0.5
 24
0.5
 15
0.5
 25
0.5
 16
0.0
 26
0.0
 36
1.0
 17
104.9999970067632
 27
148.5000119155931
 37
0.0
 40
297.0000238311862
 41
0.7070706301791065
 42
50.0
 43
0.0
 44
0.0
 50
0.0
 51
0.0
 71
     0
 72
   100
 73
     1
 74
     3
 75
     0
 76
     0
 77
     0
 78
     0
281
     0
 65
     1
110
0.0
120
0.0
130
0.0
111
1.0
121
0.0
131
0.0
112
0.0
122
1.0
132
0.0
 79
     0
146
0.0
 60
     3
 61
     5
292
     1
282
     1
141
0.0
142
0.0
 63
   250
361
3F
  0
ENDTAB
  0
TABLE
  2
LTYPE
  5
5
330
0
100
AcDbSymbolTable
 70
     1
  0
LTYPE
  5
14
330
5
100
AcDbSymbolTableRecord
100
AcDbLinetypeTableRecord
  2
ByBlock
 70
     0
  3

 72
    65
 73
     0
 40
0.0
  0
LTYPE
  5
15
330
5
100
AcDbSymbolTableRecord
100
AcDbLinetypeTableRecord
  2
ByLayer
 70
     0
  3

 72
    65
 73
     0
 40
0.0
  0
LTYPE
  5
16
330
5
100
AcDbSymbolTableRecord
100
AcDbLinetypeTableRecord
  2
Continuous
 70
     0
  3
Solid line
 72
    65
 73
     0
 40
0.0
  0
ENDTAB
  0
TABLE
  2
LAYER
  5
2
330
0
100
AcDbSymbolTable
 70
     1
  0
LAYER
  5
10
330
2
100
AcDbSymbolTableRecord
100
AcDbLayerTableRecord
  2
0
 70
     0
 62
     7
  6
Continuous
370
    -3
390
F
347
3E
  0
ENDTAB
  0
TABLE
  2
STYLE
  5
3
330
0
100
AcDbSymbolTable
 70
     1
  0
STYLE
  5
11
330
3
100
AcDbSymbolTableRecord
100
AcDbTextStyleTableRecord
  2
Standard
 70
     0
 40
0.0
 41
1.0
 50
0.0
 71
     0
 42
0.2
  3
txt
  4

  0
ENDTAB
  0
TABLE
  2
VIEW
  5
6
330
0
100
AcDbSymbolTable
 70
     0
  0
ENDTAB
  0
TABLE
  2
UCS
  5
7
330
0
100
AcDbSymbolTable
 70
     0
  0
ENDTAB
  0
TABLE
  2
APPID
  5
9
330
0
100
AcDbSymbolTable
 70
     1
  0
APPID
  5
12
330
9
100
AcDbSymbolTableRecord
100
AcDbRegAppTableRecord
  2
ACAD
 70
     0
  0
ENDTAB
  0
TABLE
  2
DIMSTYLE
  5
A
330
0
100
AcDbSymbolTable
 70
     1
100
AcDbDimStyleTable
  0
DIMSTYLE
105
27
330
A
100
AcDbSymbolTableRecord
100
AcDbDimStyleTableRecord
  2
Standard
 70
     0
178
     0
340
11
  0
ENDTAB
  0
TABLE
  2
BLOCK_RECORD
  5
1
330
0
100
AcDbSymbolTable
 70
     3
  0
BLOCK_RECORD
  5
1F
330
1
100
AcDbSymbolTableRecord
100
AcDbBlockTableRecord
  2
*Model_Space
340
22
 70
     0
280
     1
281
     0
  0
BLOCK_RECORD
  5
1B
330
1
100
AcDbSymbolTableRecord
100
AcDbBlockTableRecord
  2
*Paper_Space
340
1E
 70
     0
280
     1
281
     0
  0
BLOCK_RECORD
  5
23
330
1
100
AcDbSymbolTableRecord
100
AcDbBlockTableRecord
  2
*Paper_Space0
340
26
 70
     0
280
     1
281
     0
  0
BLOCK_RECORD
  5
40
330
1
100
AcDbSymbolTableRecord
100
AcDbBlockTableRecord
  2
block 2
340
0
102
{BLKREFS
331
41
102
}
 70
     0
280
     1
281
     0
  0
BLOCK_RECORD
  5
45
330
1
100
AcDbSymbolTableRecord
100
AcDbBlockTableRecord
  2
block 3
340
0
102
{BLKREFS
331
46
102
}
 70
     0
280
     1
281
     0
  0
ENDTAB
  0
ENDSEC
  0
SECTION
  2
BLOCKS
  0
BLOCK
  5
20
330
1F
100
AcDbEntity
  8
0
100
AcDbBlockBegin
  2
*Model_Space
 70
     0
 10
0.0
 20
0.0
 30
0.0
  3
*Model_Space
  1

  0
ENDBLK
  5
21
330
1F
100
AcDbEntity
  8
0
100
AcDbBlockEnd
  0
BLOCK
  5
1C
330
1B
100
AcDbEntity
 67
     1
  8
0
100
AcDbBlockBegin
  2
*Paper_Space
 70
     0
 10
0.0
 20
0.0
 30
0.0
  3
*Paper_Space
  1

  0
ENDBLK
  5
1D
330
1B
100
AcDbEntity
 67
     1
  8
0
100
AcDbBlockEnd
  0
BLOCK
  5
24
330
23
100
AcDbEntity
  8
0
100
AcDbBlockBegin
  2
*Paper_Space0
 70
     0
 10
0.0
 20
0.0
 30
0.0
  3
*Paper_Space0
  1

  0
ENDBLK
  5
25
330
23
100
AcDbEntity
  8
0
100
AcDbBlockEnd
  0
BLOCK
  5
42
330
40
100
AcDbEntity
  8
0
100
AcDbBlockBegin
  2
block 2
 70
     0
 10
0.0
 20
0.0
 30
0.0
  3
block 2
  1

  0
SPLINE
  5
44
330
40
100
AcDbEntity
  8
0
 62
     7
420
 16777215
370
    25
100
AcDbSpline
210
0.0
220
0.0
230
1.0
 70
    11
 71
     3
 72
    50
 73
    46
 74
     0
 42
0.0000000001
 43
0.0000000001
 12
1.0
 22
0.0
 32
0.0
 13
1.0
 23
0.0
 33
0.0
 40
0.0
 40
0.0
 40
0.0
 40
0.0
 40
1.0
 40
1.0
 40
1.0
 40
2.0
 40
2.0
 40
2.0
 40
3.0
 40
3.0
 40
3.0
 40
4.0
 40
4.0
 40
4.0
 40
5.0
 40
5.0
 40
5.0
 40
6.0
 40
6.0
 40
6.0
 40
7.0
 40
7.0
 40
7.0
 40
8.0
 40
8.0
 40
8.0
 40
9.0
 40
9.0
 40
9.0
 40
10.0
 40
10.0
 40
10.0
 40
11.0
 40
11.0
 40
11.0
 40
12.0
 40
12.0
 40
12.0
 40
13.0
 40
13.0
 40
13.0
 40
14.0
 40
14.0
 40
14.0
 40
15.0
 40
15.0
 40
15.0
 40
15.0
 10
148.6518836726202
 20
82.01944431535003
 30
0.0
 10
148.6518836726202
 20
82.01944431535003
 30
0.0
 10
148.6518836726202
 20
215.0194444992792
 30
0.0
 10
148.6518836726202
 20
215.0194444992792
 30
0.0
 10
148.6518836726202
 20
215.0194444992792
 30
0.0
 10
131.4511896321544
 20
215.0194444992792
 30
0.0
 10
131.4511896321544
 20
215.0194444992792
 30
0.0
 10
131.4511896321544
 20
215.0194444992792
 30
0.0
 10
131.4511896321544
 20
209.0194444992796
 30
0.0
 10
131.4511896321544
 20
209.0194444992796
 30
0.0
 10
131.4511896321544
 20
208.0529461870752
 30
0.0
 10
130.6676879443581
 20
207.2694444992797
 30
0.0
 10
129.7011896321551
 20
207.2694444992797
 30
0.0
 10
128.7346913199508
 20
207.2694444992797
 30
0.0
 10
127.9511896321546
 20
208.0529461870752
 30
0.0
 10
127.9511896321546
 20
209.0194444992796
 30
0.0
 10
127.9511896321546
 20
209.0194444992796
 30
0.0
 10
127.9511896321546
 20
215.0194444992792
 30
0.0
 10
127.9511896321546
 20
215.0194444992792
 30
0.0
 10
127.9511896321546
 20
215.0194444992792
 30
0.0
 10
110.7504955916888
 20
215.0194444992792
 30
0.0
 10
110.7504955916888
 20
215.0194444992792
 30
0.0
 10
110.7504955916888
 20
215.0194444992792
 30
0.0
 10
110.6518836726201
 20
215.0194444992792
 30
0.0
 10
110.6518836726201
 20
215.0194444992792
 30
0.0
 10
110.6518836726201
 20
215.0194444992792
 30
0.0
 10
110.6518836726201
 20
82.01944449927895
 30
0.0
 10
110.6518836726201
 20
82.01944449927895
 30
0.0
 10
110.6518836726201
 20
82.01944449927895
 30
0.0
 10
127.9018836726209
 20
82.0194444073145
 30
0.0
 10
127.9018836726209
 20
82.0194444073145
 30
0.0
 10
127.9018836726209
 20
82.0194444073145
 30
0.0
 10
127.9018836726209
 20
88.0194444073147
 30
0.0
 10
127.9018836726209
 20
88.0194444073147
 30
0.0
 10
127.9018836726209
 20
88.98594271951839
 30
0.0
 10
128.6853853604158
 20
89.76944440731461
 30
0.0
 10
129.6518836726201
 20
89.76944440731461
 30
0.0
 10
130.6183819848245
 20
89.76944440731461
 30
0.0
 10
131.4018836726207
 20
88.98594271951839
 30
0.0
 10
131.4018836726207
 20
88.0194444073147
 30
0.0
 10
131.4018836726207
 20
88.0194444073147
 30
0.0
 10
131.4018836726207
 20
82.0194444073145
 30
0.0
 10
131.4018836726207
 20
82.0194444073145
 30
0.0
 10
131.4018836726207
 20
82.0194444073145
 30
0.0
 10
148.6518836726202
 20
82.01944431535003
 30
0.0
 10
148.6518836726202
 20
82.01944431535003
 30
0.0
  0
ENDBLK
  5
43
330
40
100
AcDbEntity
  8
0
100
AcDbBlockEnd
  0
BLOCK
  5
47
330
45
100
AcDbEntity
  8
0
100
AcDbBlockBegin
  2
block 3
 70
     0
 10
0.0
 20
0.0
 30
0.0
  3
block 3
  1

  0
SPLINE
  5
49
330
45
100
AcDbEntity
  8
0
 62
     7
420
 16777215
370
    35
100
AcDbSpline
210
0.0
220
0.0
230
1.0
 70
    11
 71
     3
 72
   188
 73
   184
 74
     0
 42
0.0000000001
 43
0.0000000001
 12
1.0
 22
0.0
 32
0.0
 13
1.0
 23
0.0
 33
0.0
 40
0.0
 40
0.0
 40
0.0
 40
0.0
 40
1.0
 40
1.0
 40
1.0
 40
2.0
 40
2.0
 40
2.0
 40
3.0
 40
3.0
 40
3.0
 40
4.0
 40
4.0
 40
4.0
 40
5.0
 40
5.0
 40
5.0
 40
6.0
 40
6.0
 40
6.0
 40
7.0
 40
7.0
 40
7.0
 40
8.0
 40
8.0
 40
8.0
 40
9.0
 40
9.0
 40
9.0
 40
10.0
 40
10.0
 40
10.0
 40
11.0
 40
11.0
 40
11.0
 40
12.0
 40
12.0
 40
12.0
 40
13.0
 40
13.0
 40
13.0
 40
14.0
 40
14.0
 40
14.0
 40
15.0
 40
15.0
 40
15.0
 40
16.0
 40
16.0
 40
16.0
 40
17.0
 40
17.0
 40
17.0
 40
18.0
 40
18.0
 40
18.0
 40
19.0
 40
19.0
 40
19.0
 40
20.0
 40
20.0
 40
20.0
 40
21.0
 40
21.0
 40
21.0
 40
22.0
 40
22.0
 40
22.0
 40
23.0
 40
23.0
 40
23.0
 40
24.0
 40
24.0
 40
24.0
 40
25.0
 40
25.0
 40
25.0
 40
26.0
 40
26.0
 40
26.0
 40
27.0
 40
27.0
 40
27.0
 40
28.0
 40
28.0
 40
28.0
 40
29.0
 40
29.0
 40
29.0
 40
30.0
 40
30.0
 40
30.0
 40
31.0
 40
31.0
 40
31.0
 40
32.0
 40
32.0
 40
32.0
 40
33.0
 40
33.0
 40
33.0
 40
34.0
 40
34.0
 40
34.0
 40
35.0
 40
35.0
 40
35.0
 40
36.0
 40
36.0
 40
36.0
 40
37.0
 40
37.0
 40
37.0
 40
38.0
 40
38.0
 40
38.0
 40
39.0
 40
39.0
 40
39.0
 40
40.0
 40
40.0
 40
40.0
 40
41.0
 40
41.0
 40
41.0
 40
42.0
 40
42.0
 40
42.0
 40
43.0
 40
43.0
 40
43.0
 40
44.0
 40
44.0
 40
44.0
 40
45.0
 40
45.0
 40
45.0
 40
46.0
 40
46.0
 40
46.0
 40
47.0
 40
47.0
 40
47.0
 40
48.0
 40
48.0
 40
48.0
 40
49.0
 40
49.0
 40
49.0
 40
50.0
 40
50.0
 40
50.0
 40
51.0
 40
51.0
 40
51.0
 40
52.0
 40
52.0
 40
52.0
 40
53.0
 40
53.0
 40
53.0
 40
54.0
 40
54.0
 40
54.0
 40
55.0
 40
55.0
 40
55.0
 40
56.0
 40
56.0
 40
56.0
 40
57.0
 40
57.0
 40
57.0
 40
58.0
 40
58.0
 40
58.0
 40
59.0
 40
59.0
 40
59.0
 40
60.0
 40
60.0
 40
60.0
 40
61.0
 40
61.0
 40
61.0
 40
61.0
 10
131.9919268019273
 20
129.844787791256
 30
0.0
 10
132.0772307526772
 20
129.8447877424445
 30
0.0
 10
132.1625347034284
 20
129.8447877424445
 30
0.0
 10
132.2478386541783
 20
129.8447877099033
 30
0.0
 10
132.2926263522473
 20
129.8387119650355
 30
0.0
 10
132.3372713911189
 20
129.8311672592043
 30
0.0
 10
132.382225698466
 20
129.8268228589805
 30
0.0
 10
132.5490338671026
 20
129.8107023022955
 30
0.0
 10
132.7169104177393
 20
129.8024646290662
 30
0.0
 10
132.8826522869907
 20
129.7790187006035
 30
0.0
 10
133.7008006875895
 20
129.6632834072851
 30
0.0
 10
134.4762544191843
 20
129.4100022573343
 30
0.0
 10
135.2126924229156
 20
129.0377803039416
 30
0.0
 10
135.656043879059
 20
128.8136937766633
 30
0.0
 10
136.0750058194023
 20
128.5497616524821
 30
0.0
 10
136.4330554074108
 20
128.2024701898619
 30
0.0
 10
137.2737845718288
 20
127.3869957296034
 30
0.0
 10
138.0051305794753
 20
126.4829936490592
 30
0.0
 10
138.6106574249965
 20
125.4787998444529
 30
0.0
 10
138.7676096134828
 20
125.2185150387028
 30
0.0
 10
138.7688092002909
 20
125.2265008450759
 30
0.0
 10
139.0741561081809
 20
125.2392470001046
 30
0.0
 10
139.5936292611971
 20
125.2609301981897
 30
0.0
 10
140.1128129305921
 20
125.277189733151
 30
0.0
 10
140.6333940353123
 20
125.2413603387454
 30
0.0
 10
140.9190623047593
 20
125.2216983233658
 30
0.0
 10
141.1037507729355
 20
125.0857605096976
 30
0.0
 10
141.2353304508755
 20
124.8476904907859
 30
0.0
 10
141.3920702125309
 20
124.5640954400785
 30
0.0
 10
141.4469325654273
 20
124.2572869862447
 30
0.0
 10
141.4576517899027
 20
123.9374699672625
 30
0.0
 10
141.4680044739642
 20
123.6286825037777
 30
0.0
 10
141.3673828826434
 20
123.370104405113
 30
0.0
 10
141.1408213374707
 20
123.1587054591764
 30
0.0
 10
141.0452813291535
 20
123.0695578689512
 30
0.0
 10
140.9539357094303
 20
122.9755119564958
 30
0.0
 10
140.8653974560548
 20
122.8793527054002
 30
0.0
 10
140.7328806009214
 20
122.7354270027382
 30
0.0
 10
140.7316976750421
 20
122.6606619862031
 30
0.0
 10
140.8283810395348
 20
122.4911112064594
 30
0.0
 10
140.8772204670017
 20
122.4054598145525
 30
0.0
 10
140.9184833375147
 20
122.3131200885292
 30
0.0
 10
140.9475941437559
 20
122.2189872266888
 30
0.0
 10
141.0948475895993
 20
121.742866453101
 30
0.0
 10
140.9651693400538
 20
121.3627711222732
 30
0.0
 10
140.5576076396133
 20
121.0776979320241
 30
0.0
 10
140.464987458908
 20
121.0129159544383
 30
0.0
 10
140.366281874293
 20
120.949085734191
 30
0.0
 10
140.2608265312695
 20
120.9118818105878
 30
0.0
 10
139.9638121699361
 20
120.8070937441955
 30
0.0
 10
139.664146638453
 20
120.7082421860999
 30
0.0
 10
139.3612801262008
 20
120.6219623636089
 30
0.0
 10
138.8460367662501
 20
120.475186595483
 30
0.0
 10
138.3538271390959
 20
120.2783560970712
 30
0.0
 10
137.9182042708719
 20
119.963173428234
 30
0.0
 10
137.7752701705818
 20
119.8597546844885
 30
0.0
 10
137.6508234523903
 20
119.7266179947146
 30
0.0
 10
137.5334263893096
 20
119.5934063306205
 30
0.0
 10
137.443338669641
 20
119.4911819694423
 30
0.0
 10
137.4272796177799
 20
119.3619522747804
 30
0.0
 10
137.4955810916278
 20
119.2344834353244
 30
0.0
 10
137.5531779193129
 20
119.126996293417
 30
0.0
 10
137.6050392225733
 20
119.0150627578193
 30
0.0
 10
137.6743278563986
 20
118.9154552086655
 30
0.0
 10
137.9658815986196
 20
118.4963258519145
 30
0.0
 10
138.3370495847197
 20
118.1508868797801
 30
0.0
 10
138.7246598240224
 20
117.8250838902758
 30
0.0
 10
139.4867035912895
 20
117.1845553670227
 30
0.0
 10
140.2396130048459
 20
116.5360379134669
 30
0.0
 10
140.9222153853608
 20
115.8079904088262
 30
0.0
 10
141.4865626650081
 20
115.2060694950537
 30
0.0
 10
141.9063868083682
 20
114.5250413020551
 30
0.0
 10
142.1542618455337
 20
113.7380192056857
 30
0.0
 10
142.3944728558736
 20
112.9753283587262
 30
0.0
 10
142.5118241014029
 20
112.1969533005798
 30
0.0
 10
142.4052129065091
 20
111.3998950584521
 30
0.0
 10
142.2784211627178
 20
110.4519301714371
 30
0.0
 10
141.8697723367334
 20
109.632296328555
 30
0.0
 10
141.2139399020924
 20
108.9382652976136
 30
0.0
 10
140.6505193865585
 20
108.3420278538092
 30
0.0
 10
139.9690457839065
 20
107.915828002173
 30
0.0
 10
139.2236546140563
 20
107.5859222512762
 30
0.0
 10
138.4605216386288
 20
107.2481629403766
 30
0.0
 10
137.6620591656301
 20
107.0269095572749
 30
0.0
 10
136.8447740093576
 20
106.8681535176237
 30
0.0
 10
135.5928198229822
 20
106.6249618154875
 30
0.0
 10
134.3260061715537
 20
106.5393994555857
 30
0.0
 10
133.0540172194027
 20
106.5317770664016
 30
0.0
 10
132.3380836113544
 20
106.5274868692103
 30
0.0
 10
131.6215647882138
 20
106.5500166523228
 30
0.0
 10
130.9060029271187
 20
106.578134104885
 30
0.0
 10
130.3925068819794
 20
106.5983084447834
 30
0.0
 10
129.8782756733974
 20
106.6308827041352
 30
0.0
 10
129.3677306951088
 20
106.6879652355972
 30
0.0
 10
128.5375843438201
 20
106.7807709478453
 30
0.0
 10
127.7087750319938
 20
106.8883715925419
 30
0.0
 10
126.881979609826
 20
107.0076036699145
 30
0.0
 10
125.8095011038165
 20
107.1622652786543
 30
0.0
 10
124.747173788773
 20
107.3715102748604
 30
0.0
 10
123.700190667654
 20
107.6543529790945
 30
0.0
 10
122.1775588816924
 20
108.0656912544424
 30
0.0
 10
120.7378467115066
 20
108.6646965002206
 30
0.0
 10
119.4123087561641
 20
109.528348599331
 30
0.0
 10
118.6218653960165
 20
110.043359698063
 30
0.0
 10
117.9977940266179
 20
110.7029233680764
 30
0.0
 10
117.5998400845352
 20
111.5643678899906
 30
0.0
 10
117.2886875266371
 20
112.2379163532752
 30
0.0
 10
116.9838178794866
 20
112.9142201228135
 30
0.0
 10
116.8590059387874
 20
113.6540667110398
 30
0.0
 10
116.8590059387874
 20
113.7223100030586
 30
0.0
 10
116.8590059387874
 20
113.7905532950768
 30
0.0
 10
116.8590058706556
 20
113.8587965870957
 30
0.0
 10
116.8645555327879
 20
113.892115383097
 30
0.0
 10
116.8724965617748
 20
113.9252352888882
 30
0.0
 10
116.8752881559687
 20
113.9587831730886
 30
0.0
 10
116.905902606882
 20
114.326692573666
 30
0.0
 10
116.9211050405523
 20
114.6966075372993
 30
0.0
 10
116.9696263891044
 20
115.0621104704717
 30
0.0
 10
117.0241421410075
 20
115.4727677290811
 30
0.0
 10
117.092478498674
 20
115.8831334208903
 30
0.0
 10
117.184873708042
 20
116.2867430934339
 30
0.0
 10
117.2631429399437
 20
116.628645776815
 30
0.0
 10
117.3268167434505
 20
116.9707973332864
 30
0.0
 10
117.3572784515654
 20
117.3193935573336
 30
0.0
 10
117.3990709573567
 20
117.7976547436218
 30
0.0
 10
117.4315497441345
 20
118.2768114565093
 30
0.0
 10
117.4795800752916
 20
118.7544207827394
 30
0.0
 10
117.5205527462848
 20
119.1618489390451
 30
0.0
 10
117.5953636967204
 20
119.5632718605929
 30
0.0
 10
117.7127755333595
 20
119.9576253285658
 30
0.0
 10
117.859505526691
 20
120.4504492351743
 30
0.0
 10
117.9912674986109
 20
120.9477757662131
 30
0.0
 10
118.1262147665994
 20
121.4440479708799
 30
0.0
 10
118.2469839754518
 20
121.8881797013348
 30
0.0
 10
118.3537107555329
 20
122.3363642103007
 30
0.0
 10
118.4843876194427
 20
122.7775006125461
 30
0.0
 10
118.6062499413595
 20
123.1888810609484
 30
0.0
 10
118.8132787613719
 20
123.5502494727751
 30
0.0
 10
119.1786678786041
 20
123.8019356612182
 30
0.0
 10
119.3582411815933
 20
123.9256287106219
 30
0.0
 10
119.551361901567
 20
124.0113805889445
 30
0.0
 10
119.769611205689
 20
123.9671061704561
 30
0.0
 10
119.9175508735005
 20
123.9370956163183
 30
0.0
 10
120.0653788610289
 20
123.8828928276559
 30
0.0
 10
120.1995404621368
 20
123.8131313056604
 30
0.0
 10
120.5702578222029
 20
123.6203650401696
 30
0.0
 10
120.8834666054367
 20
123.3446589540057
 30
0.0
 10
121.2032080343627
 20
123.0804187322282
 30
0.0
 10
121.5625118778486
 20
122.783483979794
 30
0.0
 10
121.9120763676809
 20
122.4746975576192
 30
0.0
 10
122.2732733090987
 20
122.1801354300141
 30
0.0
 10
122.9125932022485
 20
121.6587582826102
 30
0.0
 10
123.6314252910947
 20
121.2697842220866
 30
0.0
 10
124.3809317101311
 20
120.9329433466045
 30
0.0
 10
124.6651770322064
 20
120.8051985599992
 30
0.0
 10
124.9546486790964
 20
120.6862767930059
 30
0.0
 10
125.266746907357
 20
120.6673291162847
 30
0.0
 10
125.9444067194848
 20
120.6261911235106
 30
0.0
 10
126.6231291864193
 20
120.6025242298788
 30
0.0
 10
127.3014538737011
 20
120.5725522042112
 30
0.0
 10
127.3194174778798
 20
120.571758725993
 30
0.0
 10
127.3378080183375
 20
120.5806171501442
 30
0.0
 10
127.3659368711395
 20
120.5873533845201
 30
0.0
 10
127.3476119330864
 20
120.6301835060421
 30
0.0
 10
127.334234249307
 20
120.6666428929959
 30
0.0
 10
127.3169131321575
 20
120.7011217083346
 30
0.0
 10
127.1599599023631
 20
121.0135417817475
 30
0.0
 10
126.9986946161724
 20
121.3238552850341
 30
0.0
 10
126.8458087353966
 20
121.638245516963
 30
0.0
 10
126.6615513687282
 20
122.0171490684977
 30
0.0
 10
126.5013201013731
 20
122.4062366318105
 30
0.0
 10
126.3993531401262
 20
122.8163008643758
 30
0.0
 10
126.2348150229141
 20
123.4779997405399
 30
0.0
 10
126.2117167290224
 20
124.1483368037906
 30
0.0
 10
126.2972997503145
 20
124.8224106079687
 30
0.0
 10
126.451227980391
 20
126.0347630621256
 30
0.0
 10
126.950140507094
 20
127.0905087404676
 30
0.0
 10
127.7873719179648
 20
127.9760404547612
 30
0.0
 10
128.8199954018665
 20
129.0682362784306
 30
0.0
 10
130.0957195257881
 20
129.6750153589173
 30
0.0
 10
131.5938045584394
 20
129.810993096248
 30
0.0
 10
131.7264422053008
 20
129.8230321489089
 30
0.0
 10
131.859216263507
 20
129.8335587272716
 30
0.0
 10
131.9919268019273
 20
129.844787791256
 30
0.0
  0
SPLINE
  5
4A
330
45
100
AcDbEntity
  8
0
 62
     7
420
 16777215
370
    35
100
AcDbSpline
210
0.0
220
0.0
230
1.0
 70
    11
 71
     3
 72
    74
 73
    70
 74
     0
 42
0.0000000001
 43
0.0000000001
 12
1.0
 22
0.0
 32
0.0
 13
1.0
 23
0.0
 33
0.0
 40
0.0
 40
0.0
 40
0.0
 40
0.0
 40
1.0
 40
1.0
 40
1.0
 40
2.0
 40
2.0
 40
2.0
 40
3.0
 40
3.0
 40
3.0
 40
4.0
 40
4.0
 40
4.0
 40
5.0
 40
5.0
 40
5.0
 40
6.0
 40
6.0
 40
6.0
 40
7.0
 40
7.0
 40
7.0
 40
8.0
 40
8.0
 40
8.0
 40
9.0
 40
9.0
 40
9.0
 40
10.0
 40
10.0
 40
10.0
 40
11.0
 40
11.0
 40
11.0
 40
12.0
 40
12.0
 40
12.0
 40
13.0
 40
13.0
 40
13.0
 40
14.0
 40
14.0
 40
14.0
 40
15.0
 40
15.0
 40
15.0
 40
16.0
 40
16.0
 40
16.0
 40
17.0
 40
17.0
 40
17.0
 40
18.0
 40
18.0
 40
18.0
 40
19.0
 40
19.0
 40
19.0
 40
20.0
 40
20.0
 40
20.0
 40
21.0
 40
21.0
 40
21.0
 40
22.0
 40
22.0
 40
22.0
 40
23.0
 40
23.0
 40
23.0
 40
23.0
 10
133.6905063167757
 20
125.6579002178592
 30
0.0
 10
133.3637449100181
 20
125.6893115942719
 30
0.0
 10
133.0998399776155
 20
125.5671523944944
 30
0.0
 10
132.8816422182383
 20
125.3327545552904
 30
0.0
 10
132.8584148021561
 20
125.3078032057774
 30
0.0
 10
132.8345178250345
 20
125.2832527606135
 30
0.0
 10
132.8090193162209
 20
125.2606750772397
 30
0.0
 10
132.4242622608187
 20
124.9199849993509
 30
0.0
 10
132.3822277810835
 20
124.4969116809832
 30
0.0
 10
132.5243111327436
 20
124.0365480102819
 30
0.0
 10
132.6428879977805
 20
123.6523457528233
 30
0.0
 10
132.8738428213736
 20
123.351362387117
 30
0.0
 10
133.2257476509204
 20
123.1480846178532
 30
0.0
 10
133.3241189756686
 20
123.0912608519261
 30
0.0
 10
133.4213990096415
 20
123.0322357566638
 30
0.0
 10
133.5159851798378
 20
122.9694098799084
 30
0.0
 10
133.5380536201239
 20
122.9547508384144
 30
0.0
 10
133.5470952974238
 20
122.9204776818002
 30
0.0
 10
133.562130743528
 20
122.8952290382822
 30
0.0
 10
133.5357575360012
 20
122.8811682293813
 30
0.0
 10
133.5106266089083
 20
122.8594277592469
 30
0.0
 10
133.4827091416277
 20
122.8549105564759
 30
0.0
 10
133.444310909402
 20
122.8486996629935
 30
0.0
 10
133.4034052075309
 20
122.8523385207814
 30
0.0
 10
133.3642624400894
 20
122.8572472561109
 30
0.0
 10
132.9538954559188
 20
122.9087061929296
 30
0.0
 10
132.6151131896949
 20
123.0968063483202
 30
0.0
 10
132.3141220731363
 20
123.3776039197175
 30
0.0
 10
131.6273117670242
 20
124.0183328951448
 30
0.0
 10
131.7891237399126
 20
125.0151013784839
 30
0.0
 10
132.4083531573082
 20
125.5358290087775
 30
0.0
 10
132.730197507724
 20
125.8064771919543
 30
0.0
 10
133.1041832732519
 20
125.9638717187825
 30
0.0
 10
133.5247977693793
 20
125.9963972968926
 30
0.0
 10
133.7873354643876
 20
126.0166991972656
 30
0.0
 10
134.0294249943457
 20
125.9295597733712
 30
0.0
 10
134.2647574767397
 20
125.824889895663
 30
0.0
 10
134.769844959839
 20
125.6002394990217
 30
0.0
 10
135.1358084885927
 20
125.2417201113488
 30
0.0
 10
135.3106961659431
 20
124.7094185807575
 30
0.0
 10
135.426156396158
 20
124.3580066544758
 30
0.0
 10
135.3982160201011
 20
124.0193002721331
 30
0.0
 10
135.1825861262346
 20
123.7078434104681
 30
0.0
 10
134.9986661433562
 20
123.4421901310241
 30
0.0
 10
134.7948696735165
 20
123.1949237828664
 30
0.0
 10
134.5176130900339
 20
123.0200659667189
 30
0.0
 10
134.4759316137069
 20
122.9937780958231
 30
0.0
 10
134.4243639593001
 20
122.9801114227562
 30
0.0
 10
134.3754287314978
 20
122.9699367827673
 30
0.0
 10
134.3567372530309
 20
122.9660490518912
 30
0.0
 10
134.3272619889933
 20
122.9839736415382
 30
0.0
 10
134.3134625754755
 20
123.0007902773489
 30
0.0
 10
134.3076073006335
 20
123.0079274160738
 30
0.0
 10
134.3243921441654
 20
123.0440978395037
 30
0.0
 10
134.339561919002
 20
123.0561874485787
 30
0.0
 10
134.399468367813
 20
123.1039210988799
 30
0.0
 10
134.461905195047
 20
123.1486552557327
 30
0.0
 10
134.5250251203247
 20
123.1921466091021
 30
0.0
 10
134.9725334779746
 20
123.5004816233929
 30
0.0
 10
135.1741473662625
 20
123.9303146056119
 30
0.0
 10
135.0996709360183
 20
124.463552794547
 30
0.0
 10
135.0228765541832
 20
125.0133722832325
 30
0.0
 10
134.7186313501484
 20
125.4070108918922
 30
0.0
 10
134.1830887321912
 20
125.5904946597338
 30
0.0
 10
134.0272080496295
 20
125.6439013669038
 30
0.0
 10
133.8564200018446
 20
125.6537987581051
 30
0.0
 10
133.6924650171084
 20
125.6836403596962
 30
0.0
 10
133.6918121169979
 20
125.6750602256413
 30
0.0
 10
133.6911592168862
 20
125.6664803519141
 30
0.0
 10
133.6905063167757
 20
125.6579002178592
 30
0.0
  0
ENDBLK
  5
48
330
45
100
AcDbEntity
  8
0
100
AcDbBlockEnd
  0
ENDSEC
  0
SECTION
  2
ENTITIES
  0
INSERT
  5
41
330
1F
100
AcDbEntity
  8
0
100
AcDbBlockReference
  2
block 2
 10
0.0
 20
0.0
 30
0.0
  0
INSERT
  5
46
330
1F
100
AcDbEntity
  8
0
100
AcDbBlockReference
  2
block 3
 10
0.0
 20
0.0
 30
0.0
  0
ENDSEC
  0
SECTION
  2
OBJECTS
  0
DICTIONARY
  5
C
330
0
100
AcDbDictionary
281
     1
  3
ACAD_GROUP
350
D
  3
ACAD_LAYOUT
350
1A
  3
ACAD_MATERIAL
350
3B
  3
ACAD_MLEADERSTYLE
350
4C
  3
ACAD_MLINESTYLE
350
17
  3
ACAD_PLOTSETTINGS
350
19
  3
ACAD_PLOTSTYLENAME
350
E
  3
ACAD_TABLESTYLE
350
4B
  3
ACAD_VISUALSTYLE
350
2A
  0
SUN
  5
3F
330
29
100
AcDbSun
 90
        1
290
     0
 63
     7
421
 16777215
 40
1.0
291
     1
 91
  2455826
 92
 54000000
292
     0
 70
     2
 71
   256
280
     1
  0
DICTIONARY
  5
D
102
{ACAD_REACTORS
330
C
102
}
330
C
100
AcDbDictionary
281
     1
  0
DICTIONARY
  5
1A
102
{ACAD_REACTORS
330
C
102
}
330
C
100
AcDbDictionary
281
     1
  3
Layout1
350
1E
  3
Layout2
350
26
  3
Model
350
22
  0
DICTIONARY
  5
3B
102
{ACAD_REACTORS
330
C
102
}
330
C
100
AcDbDictionary
281
     1
  3
ByBlock
350
3D
  3
ByLayer
350
3C
  3
Global
350
3E
  0
DICTIONARY
  5
4C
102
{ACAD_REACTORS
330
C
102
}
330
C
100
AcDbDictionary
281
     1
  0
DICTIONARY
  5
17
102
{ACAD_REACTORS
330
C
102
}
330
C
100
AcDbDictionary
281
     1
  3
Standard
350
18
  0
DICTIONARY
  5
19
102
{ACAD_REACTORS
330
C
102
}
330
C
100
AcDbDictionary
281
     1
  0
ACDBDICTIONARYWDFLT
  5
E
102
{ACAD_REACTORS
330
C
102
}
330
C
100
AcDbDictionary
281
     1
  3
Normal
350
F
100
AcDbDictionaryWithDefault
340
F
  0
DICTIONARY
  5
4B
102
{ACAD_REACTORS
330
C
102
}
330
C
100
AcDbDictionary
281
     1
  0
DICTIONARY
  5
2A
102
{ACAD_REACTORS
330
C
102
}
330
C
100
AcDbDictionary
281
     1
  3
2dWireframe
350
2F
  3
3D Hidden
350
31
  3
3dWireframe
350
30
  3
Basic
350
32
  3
Brighten
350
36
  3
ColorChange
350
3A
  3
Conceptual
350
34
  3
Dim
350
35
  3
Facepattern
350
39
  3
Flat
350
2B
  3
FlatWithEdges
350
2C
  3
Gouraud
350
2D
  3
GouraudWithEdges
350
2E
  3
Linepattern
350
38
  3
Realistic
350
33
  3
Thicken
350
37
  0
LAYOUT
  5
1E
102
{ACAD_REACTORS
330
1A
102
}
330
1A
100
AcDbPlotSettings
  1

  2
none_device
  4

  6

 40
0.0
 41
0.0
 42
0.0
 43
0.0
 44
0.0
 45
0.0
 46
0.0
 47
0.0
 48
0.0
 49
0.0
140
0.0
141
0.0
142
1.0
143
1.0
 70
   688
 72
     0
 73
     0
 74
     5
  7

 75
    16
 76
     0
 77
     2
 78
   300
147
1.0
148
0.0
149
0.0
100
AcDbLayout
  1
Layout1
 70
     1
 71
     1
 10
0.0
 20
0.0
 11
12.0
 21
9.0
 12
0.0
 22
0.0
 32
0.0
 14
1.000000000000000E+20
 24
1.000000000000000E+20
 34
1.000000000000000E+20
 15
-1.000000000000000E+20
 25
-1.000000000000000E+20
 35
-1.000000000000000E+20
146
0.0
 13
0.0
 23
0.0
 33
0.0
 16
1.0
 26
0.0
 36
0.0
 17
0.0
 27
1.0
 37
0.0
 76
     0
330
1B
  0
LAYOUT
  5
26
102
{ACAD_REACTORS
330
1A
102
}
330
1A
100
AcDbPlotSettings
  1

  2
none_device
  4

  6

 40
0.0
 41
0.0
 42
0.0
 43
0.0
 44
0.0
 45
0.0
 46
0.0
 47
0.0
 48
0.0
 49
0.0
140
0.0
141
0.0
142
1.0
143
1.0
 70
   688
 72
     0
 73
     0
 74
     5
  7

 75
    16
 76
     0
 77
     2
 78
   300
147
1.0
148
0.0
149
0.0
100
AcDbLayout
  1
Layout2
 70
     1
 71
     2
 10
0.0
 20
0.0
 11
0.0
 21
0.0
 12
0.0
 22
0.0
 32
0.0
 14
0.0
 24
0.0
 34
0.0
 15
0.0
 25
0.0
 35
0.0
146
0.0
 13
0.0
 23
0.0
 33
0.0
 16
1.0
 26
0.0
 36
0.0
 17
0.0
 27
1.0
 37
0.0
 76
     0
330
23
  0
LAYOUT
  5
22
102
{ACAD_REACTORS
330
1A
102
}
330
1A
100
AcDbPlotSettings
  1

  2
none_device
  4

  6

 40
0.0
 41
0.0
 42
0.0
 43
0.0
 44
0.0
 45
0.0
 46
0.0
 47
0.0
 48
0.0
 49
0.0
140
0.0
141
0.0
142
1.0
143
1.0
 70
  1712
 72
     0
 73
     0
 74
     0
  7

 75
     0
 76
     0
 77
     2
 78
   300
147
1.0
148
0.0
149
0.0
100
AcDbLayout
  1
Model
 70
     1
 71
     0
 10
0.0
 20
0.0
 11
12.0
 21
9.0
 12
0.0
 22
0.0
 32
0.0
 14
1.000000000000000E+20
 24
1.000000000000000E+20
 34
1.000000000000000E+20
 15
-1.000000000000000E+20
 25
-1.000000000000000E+20
 35
-1.000000000000000E+20
146
0.0
 13
0.0
 23
0.0
 33
0.0
 16
1.0
 26
0.0
 36
0.0
 17
0.0
 27
1.0
 37
0.0
 76
     0
330
1F
331
29
  0
MATERIAL
  5
3D
102
{ACAD_REACTORS
330
3B
102
}
330
3B
100
AcDbMaterial
  1
ByBlock
 72
     1
 94
      127
  0
MATERIAL
  5
3C
102
{ACAD_REACTORS
330
3B
102
}
330
3B
100
AcDbMaterial
  1
ByLayer
 72
     1
 94
      127
  0
MATERIAL
  5
3E
102
{ACAD_REACTORS
330
3B
102
}
330
3B
100
AcDbMaterial
  1
Global
 72
     1
 94
      127
  0
MLINESTYLE
  5
18
102
{ACAD_REACTORS
330
17
102
}
330
17
100
AcDbMlineStyle
  2
Standard
 70
     0
  3

 62
   256
 51
90.0
 52
90.0
 71
     2
 49
0.5
 62
   256
  6
BYLAYER
 49
-0.5
 62
   256
  6
BYLAYER
  0
ACDBPLACEHOLDER
  5
F
102
{ACAD_REACTORS
330
E
102
}
330
E
  0
VISUALSTYLE
  5
2F
102
{ACAD_REACTORS
330
2A
102
}
330
2A
100
AcDbVisualStyle
  2
2dWireframe
 70
     4
177
     2
291
     0
 71
     0
176
     1
 72
     2
176
     1
 73
     0
176
     1
 90
        0
176
     1
 40
-0.6
176
     1
 41
-30.0
176
     1
 62
     5
 63
     7
421
 16777215
176
     1
 74
     1
176
     1
 91
        4
176
     1
 64
     7
176
     1
 65
   257
176
     1
 75
     1
176
     1
175
     1
176
     1
 42
1.0
176
     1
 92
        0
176
     1
 66
   257
176
     1
 43
1.0
176
     1
 76
     1
176
     1
 77
     6
176
     1
 78
     2
176
     1
 67
     7
176
     1
 79
     5
176
     1
170
     0
176
     1
171
     0
176
     1
290
     0
176
     1
 93
        1
176
     1
 44
0.0
176
     1
173
     0
176
     1
  0
VISUALSTYLE
  5
31
102
{ACAD_REACTORS
330
2A
102
}
330
2A
100
AcDbVisualStyle
  2
3D Hidden
 70
     6
177
     2
291
     0
 71
     1
176
     1
 72
     2
176
     1
 73
     2
176
     1
 90
        0
176
     1
 40
-0.6
176
     1
 41
-30.0
176
     1
 62
     5
 63
     7
421
 16777215
176
     1
 74
     2
176
     1
 91
        2
176
     1
 64
     7
176
     1
 65
   257
176
     1
 75
     2
176
     1
175
     1
176
     1
 42
40.0
176
     1
 92
        0
176
     1
 66
   257
176
     1
 43
1.0
176
     1
 76
     1
176
     1
 77
     6
176
     1
 78
     2
176
     1
 67
     7
176
     1
 79
     3
176
     1
170
     0
176
     1
171
     0
176
     1
290
     0
176
     1
 93
        1
176
     1
 44
0.0
176
     1
173
     0
176
     1
  0
VISUALSTYLE
  5
30
102
{ACAD_REACTORS
330
2A
102
}
330
2A
100
AcDbVisualStyle
  2
3dWireframe
 70
     5
177
     2
291
     0
 71
     0
176
     1
 72
     2
176
     1
 73
     0
176
     1
 90
        0
176
     1
 40
-0.6
176
     1
 41
-30.0
176
     1
 62
     5
 63
     7
421
 16777215
176
     1
 74
     1
176
     1
 91
        4
176
     1
 64
     7
176
     1
 65
   257
176
     1
 75
     1
176
     1
175
     1
176
     1
 42
1.0
176
     1
 92
        0
176
     1
 66
   257
176
     1
 43
1.0
176
     1
 76
     1
176
     1
 77
     6
176
     1
 78
     2
176
     1
 67
     7
176
     1
 79
     5
176
     1
170
     0
176
     1
171
     0
176
     1
290
     0
176
     1
 93
        1
176
     1
 44
0.0
176
     1
173
     0
176
     1
  0
VISUALSTYLE
  5
32
102
{ACAD_REACTORS
330
2A
102
}
330
2A
100
AcDbVisualStyle
  2
Basic
 70
     7
177
     2
291
     1
 71
     1
176
     1
 72
     0
176
     1
 73
     1
176
     1
 90
        0
176
     1
 40
-0.6
176
     1
 41
-30.0
176
     1
 62
     5
 63
     7
421
 16777215
176
     1
 74
     0
176
     1
 91
        4
176
     1
 64
     7
176
     1
 65
   257
176
     1
 75
     1
176
     1
175
     1
176
     1
 42
1.0
176
     1
 92
        8
176
     1
 66
     7
176
     1
 43
1.0
176
     1
 76
     1
176
     1
 77
     6
176
     1
 78
     2
176
     1
 67
     7
176
     1
 79
     5
176
     1
170
     0
176
     1
171
     0
176
     1
290
     0
176
     1
 93
        1
176
     1
 44
0.0
176
     1
173
     0
176
     1
  0
VISUALSTYLE
  5
36
102
{ACAD_REACTORS
330
2A
102
}
330
2A
100
AcDbVisualStyle
  2
Brighten
 70
    12
177
     2
291
     1
 71
     2
176
     1
 72
     2
176
     1
 73
     0
176
     1
 90
        0
176
     1
 40
-0.6
176
     1
 41
-30.0
176
     1
 62
     5
 63
     7
421
 16777215
176
     1
 74
     1
176
     1
 91
        4
176
     1
 64
     7
176
     1
 65
   257
176
     1
 75
     1
176
     1
175
     1
176
     1
 42
1.0
176
     1
 92
        8
176
     1
 66
     7
176
     1
 43
1.0
176
     1
 76
     1
176
     1
 77
     6
176
     1
 78
     2
176
     1
 67
     7
176
     1
 79
     5
176
     1
170
     0
176
     1
171
     0
176
     1
290
     0
176
     1
 93
        1
176
     1
 44
50.0
176
     1
173
     0
176
     1
  0
VISUALSTYLE
  5
3A
102
{ACAD_REACTORS
330
2A
102
}
330
2A
100
AcDbVisualStyle
  2
ColorChange
 70
    16
177
     2
291
     1
 71
     2
176
     1
 72
     2
176
     1
 73
     3
176
     1
 90
        0
176
     1
 40
-0.6
176
     1
 41
-30.0
176
     1
 62
     5
 63
     8
421
  8421504
176
     1
 74
     1
176
     1
 91
        4
176
     1
 64
     7
176
     1
 65
   257
176
     1
 75
     1
176
     1
175
     1
176
     1
 42
1.0
176
     1
 92
        8
176
     1
 66
     8
424
  8421504
176
     1
 43
1.0
176
     1
 76
     1
176
     1
 77
     6
176
     1
 78
     2
176
     1
 67
     7
176
     1
 79
     5
176
     1
170
     0
176
     1
171
     0
176
     1
290
     0
176
     1
 93
        1
176
     1
 44
0.0
176
     1
173
     0
176
     1
  0
VISUALSTYLE
  5
34
102
{ACAD_REACTORS
330
2A
102
}
330
2A
100
AcDbVisualStyle
  2
Conceptual
 70
     9
177
     2
291
     0
 71
     3
176
     1
 72
     2
176
     1
 73
     0
176
     1
 90
        0
176
     1
 40
-0.6
176
     1
 41
-30.0
176
     1
 62
     5
 63
     7
421
 16777215
176
     1
 74
     2
176
     1
 91
        2
176
     1
 64
     7
176
     1
 65
   257
176
     1
 75
     1
176
     1
175
     1
176
     1
 42
40.0
176
     1
 92
        8
176
     1
 66
     7
176
     1
 43
1.0
176
     1
 76
     1
176
     1
 77
     6
176
     1
 78
     2
176
     1
 67
     7
176
     1
 79
     3
176
     1
170
     0
176
     1
171
     0
176
     1
290
     0
176
     1
 93
        1
176
     1
 44
0.0
176
     1
173
     0
176
     1
  0
VISUALSTYLE
  5
35
102
{ACAD_REACTORS
330
2A
102
}
330
2A
100
AcDbVisualStyle
  2
Dim
 70
    11
177
     2
291
     1
 71
     2
176
     1
 72
     2
176
     1
 73
     0
176
     1
 90
        0
176
     1
 40
-0.6
176
     1
 41
-30.0
176
     1
 62
     5
 63
     7
421
 16777215
176
     1
 74
     1
176
     1
 91
        4
176
     1
 64
     7
176
     1
 65
   257
176
     1
 75
     1
176
     1
175
     1
176
     1
 42
1.0
176
     1
 92
        8
176
     1
 66
     7
176
     1
 43
1.0
176
     1
 76
     1
176
     1
 77
     6
176
     1
 78
     2
176
     1
 67
     7
176
     1
 79
     5
176
     1
170
     0
176
     1
171
     0
176
     1
290
     0
176
     1
 93
        1
176
     1
 44
-50.0
176
     1
173
     0
176
     1
  0
VISUALSTYLE
  5
39
102
{ACAD_REACTORS
330
2A
102
}
330
2A
100
AcDbVisualStyle
  2
Facepattern
 70
    15
177
     2
291
     1
 71
     2
176
     1
 72
     2
176
     1
 73
     0
176
     1
 90
        0
176
     1
 40
-0.6
176
     1
 41
-30.0
176
     1
 62
     5
 63
     7
421
 16777215
176
     1
 74
     1
176
     1
 91
        4
176
     1
 64
     7
176
     1
 65
   257
176
     1
 75
     1
176
     1
175
     1
176
     1
 42
1.0
176
     1
 92
        8
176
     1
 66
     7
176
     1
 43
1.0
176
     1
 76
     1
176
     1
 77
     6
176
     1
 78
     2
176
     1
 67
     7
176
     1
 79
     5
176
     1
170
     0
176
     1
171
     0
176
     1
290
     0
176
     1
 93
        1
176
     1
 44
0.0
176
     1
173
     0
176
     1
  0
VISUALSTYLE
  5
2B
102
{ACAD_REACTORS
330
2A
102
}
330
2A
100
AcDbVisualStyle
  2
Flat
 70
     0
177
     2
291
     1
 71
     2
176
     1
 72
     1
176
     1
 73
     1
176
     1
 90
        2
176
     1
 40
-0.6
176
     1
 41
30.0
176
     1
 62
     5
 63
     7
421
 16777215
176
     1
 74
     0
176
     1
 91
        4
176
     1
 64
     7
176
     1
 65
   257
176
     1
 75
     1
176
     1
175
     1
176
     1
 42
1.0
176
     1
 92
        8
176
     1
 66
     7
176
     1
 43
1.0
176
     1
 76
     1
176
     1
 77
     6
176
     1
 78
     2
176
     1
 67
     7
176
     1
 79
     5
176
     1
170
     0
176
     1
171
     0
176
     1
290
     0
176
     1
 93
       13
176
     1
 44
0.0
176
     1
173
     0
176
     1
  0
VISUALSTYLE
  5
2C
102
{ACAD_REACTORS
330
2A
102
}
330
2A
100
AcDbVisualStyle
  2
FlatWithEdges
 70
     1
177
     2
291
     1
 71
     2
176
     1
 72
     1
176
     1
 73
     1
176
     1
 90
        2
176
     1
 40
-0.6
176
     1
 41
30.0
176
     1
 62
     5
 63
     7
421
 16777215
176
     1
 74
     1
176
     1
 91
        4
176
     1
 64
     7
176
     1
 65
   257
176
     1
 75
     1
176
     1
175
     1
176
     1
 42
1.0
176
     1
 92
        0
176
     1
 66
   257
176
     1
 43
1.0
176
     1
 76
     1
176
     1
 77
     6
176
     1
 78
     2
176
     1
 67
     7
176
     1
 79
     5
176
     1
170
     0
176
     1
171
     0
176
     1
290
     0
176
     1
 93
       13
176
     1
 44
0.0
176
     1
173
     0
176
     1
  0
VISUALSTYLE
  5
2D
102
{ACAD_REACTORS
330
2A
102
}
330
2A
100
AcDbVisualStyle
  2
Gouraud
 70
     2
177
     2
291
     1
 71
     2
176
     1
 72
     2
176
     1
 73
     1
176
     1
 90
        2
176
     1
 40
-0.6
176
     1
 41
30.0
176
     1
 62
     5
 63
     7
421
 16777215
176
     1
 74
     0
176
     1
 91
        4
176
     1
 64
     7
176
     1
 65
   257
176
     1
 75
     1
176
     1
175
     1
176
     1
 42
1.0
176
     1
 92
        0
176
     1
 66
     7
176
     1
 43
1.0
176
     1
 76
     1
176
     1
 77
     6
176
     1
 78
     2
176
     1
 67
     7
176
     1
 79
     5
176
     1
170
     0
176
     1
171
     0
176
     1
290
     0
176
     1
 93
       13
176
     1
 44
0.0
176
     1
173
     0
176
     1
  0
VISUALSTYLE
  5
2E
102
{ACAD_REACTORS
330
2A
102
}
330
2A
100
AcDbVisualStyle
  2
GouraudWithEdges
 70
     3
177
     2
291
     1
 71
     2
176
     1
 72
     2
176
     1
 73
     1
176
     1
 90
        2
176
     1
 40
-0.6
176
     1
 41
30.0
176
     1
 62
     5
 63
     7
421
 16777215
176
     1
 74
     1
176
     1
 91
        4
176
     1
 64
     7
176
     1
 65
   257
176
     1
 75
     1
176
     1
175
     1
176
     1
 42
1.0
176
     1
 92
        0
176
     1
 66
   257
176
     1
 43
1.0
176
     1
 76
     1
176
     1
 77
     6
176
     1
 78
     2
176
     1
 67
     7
176
     1
 79
     5
176
     1
170
     0
176
     1
171
     0
176
     1
290
     0
176
     1
 93
       13
176
     1
 44
0.0
176
     1
173
     0
176
     1
  0
VISUALSTYLE
  5
38
102
{ACAD_REACTORS
330
2A
102
}
330
2A
100
AcDbVisualStyle
  2
Linepattern
 70
    14
177
     2
291
     1
 71
     2
176
     1
 72
     2
176
     1
 73
     0
176
     1
 90
        0
176
     1
 40
-0.6
176
     1
 41
-30.0
176
     1
 62
     5
 63
     7
421
 16777215
176
     1
 74
     1
176
     1
 91
        4
176
     1
 64
     7
176
     1
 65
   257
176
     1
 75
     7
176
     1
175
     7
176
     1
 42
1.0
176
     1
 92
        8
176
     1
 66
     7
176
     1
 43
1.0
176
     1
 76
     1
176
     1
 77
     6
176
     1
 78
     2
176
     1
 67
     7
176
     1
 79
     5
176
     1
170
     0
176
     1
171
     0
176
     1
290
     0
176
     1
 93
        1
176
     1
 44
0.0
176
     1
173
     0
176
     1
  0
VISUALSTYLE
  5
33
102
{ACAD_REACTORS
330
2A
102
}
330
2A
100
AcDbVisualStyle
  2
Realistic
 70
     8
177
     2
291
     0
 71
     2
176
     1
 72
     2
176
     1
 73
     0
176
     1
 90
        0
176
     1
 40
-0.6
176
     1
 41
-30.0
176
     1
 62
     5
 63
     7
421
 16777215
176
     1
 74
     1
176
     1
 91
        0
176
     1
 64
     7
176
     1
 65
   257
176
     1
 75
     1
176
     1
175
     1
176
     1
 42
1.0
176
     1
 92
        8
176
     1
 66
     8
424
  7895160
176
     1
 43
1.0
176
     1
 76
     1
176
     1
 77
     6
176
     1
 78
     2
176
     1
 67
     7
176
     1
 79
     5
176
     1
170
     0
176
     1
171
     0
176
     1
290
     0
176
     1
 93
       13
176
     1
 44
0.0
176
     1
173
     0
176
     1
  0
VISUALSTYLE
  5
37
102
{ACAD_REACTORS
330
2A
102
}
330
2A
100
AcDbVisualStyle
  2
Thicken
 70
    13
177
     2
291
     1
 71
     2
176
     1
 72
     2
176
     1
 73
     0
176
     1
 90
        0
176
     1
 40
-0.6
176
     1
 41
-30.0
176
     1
 62
     5
 63
     7
421
 16777215
176
     1
 74
     1
176
     1
 91
        4
176
     1
 64
     7
176
     1
 65
   257
176
     1
 75
     1
176
     1
175
     1
176
     1
 42
1.0
176
     1
 92
       12
176
     1
 66
     7
176
     1
 43
1.0
176
     1
 76
     1
176
     1
 77
     6
176
     1
 78
     2
176
     1
 67
     7
176
     1
 79
     5
176
     1
170
     0
176
     1
171
     0
176
     1
290
     0
176
     1
 93
        1
176
     1
 44
0.0
176
     1
173
     0
176
     1
  0
ENDSEC
  0
EOF
